<svg width="211" height="203" viewBox="0 0 211 203" fill="none" xmlns="http://www.w3.org/2000/svg">
<g clip-path="url(#clip0)">
<path opacity="0.1" d="M101.144 173.125C140.905 173.125 173.137 140.893 173.137 101.132C173.137 61.3714 140.905 29.139 101.144 29.139C61.3835 29.139 29.1511 61.3714 29.1511 101.132C29.1511 140.893 61.3835 173.125 101.144 173.125Z" fill="#03AD3D"/>
<g opacity="0.1">
<path opacity="0.1" d="M101.081 202.153C81.0895 202.154 61.5466 196.227 44.9238 185.121C28.301 174.015 15.345 158.228 7.69406 139.759C0.0431585 121.289 -1.95893 100.966 1.94099 81.3582C5.84091 61.7507 15.4677 43.74 29.6038 29.6038C43.74 15.4677 61.7507 5.84091 81.3582 1.94099C100.966 -1.95893 121.289 0.0431561 139.759 7.69405C158.228 15.345 174.014 28.301 185.121 44.9238C196.227 61.5466 202.154 81.0895 202.153 101.081C202.122 127.877 191.463 153.567 172.515 172.515C153.567 191.463 127.877 202.122 101.081 202.153V202.153ZM101.081 1.34007C81.3542 1.34007 62.0703 7.18977 45.6679 18.1495C29.2656 29.1091 16.4816 44.6866 8.9324 62.9118C1.38324 81.1371 -0.591964 101.192 3.25656 120.54C7.10509 139.887 16.6045 157.66 30.5535 171.609C44.5026 185.558 62.2747 195.057 81.6226 198.906C100.97 202.754 121.025 200.779 139.25 193.23C157.476 185.681 173.053 172.897 184.013 156.494C194.972 140.092 200.822 120.808 200.822 101.081C200.793 74.6371 190.275 49.2847 171.576 30.586C152.877 11.8873 127.525 1.36945 101.081 1.34007V1.34007Z" fill="#03AD3D"/>
</g>
<path d="M199.651 105.139C205.45 105.139 210.151 100.438 210.151 94.639C210.151 88.84 205.45 84.139 199.651 84.139C193.852 84.139 189.151 88.84 189.151 94.639C189.151 100.438 193.852 105.139 199.651 105.139Z" fill="#E35151"/>
<path d="M33.6511 135.139C38.3455 135.139 42.1511 131.333 42.1511 126.639C42.1511 121.945 38.3455 118.139 33.6511 118.139C28.9567 118.139 25.1511 121.945 25.1511 126.639C25.1511 131.333 28.9567 135.139 33.6511 135.139Z" fill="#E35151"/>
<path d="M8.65112 68.139C12.241 68.139 15.1511 65.2289 15.1511 61.639C15.1511 58.0492 12.241 55.139 8.65112 55.139C5.06127 55.139 2.15112 58.0492 2.15112 61.639C2.15112 65.2289 5.06127 68.139 8.65112 68.139Z" fill="#E35151"/>
<path d="M154.651 193.139C158.241 193.139 161.151 190.229 161.151 186.639C161.151 183.049 158.241 180.139 154.651 180.139C151.061 180.139 148.151 183.049 148.151 186.639C148.151 190.229 151.061 193.139 154.651 193.139Z" fill="#E35151"/>
<path d="M144.651 15.139C147.136 15.139 149.151 13.1243 149.151 10.639C149.151 8.15376 147.136 6.13904 144.651 6.13904C142.166 6.13904 140.151 8.15376 140.151 10.639C140.151 13.1243 142.166 15.139 144.651 15.139Z" fill="#E35151"/>
<path d="M132.801 79.807C133.116 79.807 133.419 79.6818 133.642 79.4588C133.865 79.2358 133.99 78.9334 133.99 78.618V67.352C133.989 66.2592 133.554 65.2115 132.781 64.4388C132.009 63.6661 130.961 63.2314 129.868 63.23H114.32C114.155 62.362 113.693 61.5785 113.013 61.0144C112.333 60.4503 111.478 60.1407 110.594 60.139H92.5511C91.6674 60.1405 90.8118 60.4499 90.1316 61.0141C89.4513 61.5782 88.989 62.3618 88.8241 63.23H73.2731C72.1803 63.2314 71.1326 63.6661 70.3599 64.4388C69.5872 65.2115 69.1524 66.2592 69.1511 67.352V137.184C69.1524 138.277 69.5872 139.325 70.3599 140.097C71.1326 140.87 72.1803 141.305 73.2731 141.306H129.873C130.966 141.305 132.014 140.87 132.786 140.097C133.559 139.325 133.994 138.277 133.995 137.184V83.057C133.995 82.7417 133.87 82.4393 133.647 82.2163C133.424 81.9933 133.121 81.868 132.806 81.868C132.491 81.868 132.188 81.9933 131.965 82.2163C131.742 82.4393 131.617 82.7417 131.617 83.057V137.184C131.617 137.646 131.433 138.09 131.106 138.417C130.779 138.744 130.335 138.928 129.873 138.928H73.2731C72.8107 138.928 72.3675 138.744 72.0405 138.417C71.7136 138.09 71.5297 137.646 71.5291 137.184V67.352C71.5297 66.8897 71.7136 66.4464 72.0405 66.1194C72.3675 65.7925 72.8107 65.6086 73.2731 65.608H88.7561C88.8451 66.789 88.4561 68.02 89.4111 69.416H76.5231C76.2078 69.416 75.9054 69.5413 75.6824 69.7643C75.4594 69.9873 75.3341 70.2897 75.3341 70.605V101.475C75.3341 101.79 75.4594 102.093 75.6824 102.316C75.9054 102.539 76.2078 102.664 76.5231 102.664C76.8385 102.664 77.1409 102.539 77.3639 102.316C77.5869 102.093 77.7121 101.79 77.7121 101.475V71.794H95.5751C95.7736 73.2431 96.4903 74.5711 97.5924 75.5326C98.6945 76.494 100.108 77.0237 101.57 77.0237C103.033 77.0237 104.446 76.494 105.548 75.5326C106.65 74.5711 107.367 73.2431 107.565 71.794H125.429V132.739H77.7121V105.914C77.7121 105.599 77.5869 105.296 77.3639 105.073C77.1409 104.85 76.8385 104.725 76.5231 104.725C76.2078 104.725 75.9054 104.85 75.6824 105.073C75.4594 105.296 75.3341 105.599 75.3341 105.914V133.931C75.3341 134.246 75.4594 134.549 75.6824 134.772C75.9054 134.995 76.2078 135.12 76.5231 135.12H126.623C126.938 135.12 127.241 134.995 127.464 134.772C127.687 134.549 127.812 134.246 127.812 133.931V70.605C127.812 70.2897 127.687 69.9873 127.464 69.7643C127.241 69.5413 126.938 69.416 126.623 69.416H113.73C114.679 68.023 114.297 66.774 114.385 65.608H129.868C130.33 65.6086 130.774 65.7925 131.101 66.1194C131.428 66.4464 131.612 66.8897 131.612 67.352V78.618C131.612 78.9334 131.737 79.2358 131.96 79.4588C132.183 79.6818 132.486 79.807 132.801 79.807ZM97.9011 70.971V69.89C97.9011 69.5747 97.7759 69.2723 97.5529 69.0493C97.3299 68.8263 97.0275 68.701 96.7121 68.701H92.5511C92.1765 68.7005 91.8174 68.5515 91.5526 68.2866C91.2877 68.0217 91.1387 67.6626 91.1381 67.288V63.93C91.1387 63.5554 91.2877 63.1964 91.5526 62.9315C91.8174 62.6666 92.1765 62.5176 92.5511 62.517H110.594C110.969 62.5176 111.328 62.6666 111.593 62.9315C111.858 63.1964 112.007 63.5554 112.007 63.93V67.288C112.007 67.6626 111.858 68.0217 111.593 68.2866C111.328 68.5515 110.969 68.7005 110.594 68.701H106.432C106.117 68.701 105.814 68.8263 105.591 69.0493C105.368 69.2723 105.243 69.5747 105.243 69.89V70.971C105.243 71.9452 104.856 72.8794 104.167 73.5682C103.479 74.2571 102.544 74.644 101.57 74.644C100.596 74.644 99.6617 74.2571 98.9729 73.5682C98.2841 72.8794 97.8971 71.9452 97.8971 70.971H97.9011Z" fill="#E35151"/>
<path d="M101.628 91.639C98.9626 91.639 96.357 92.4295 94.1407 93.9103C91.9244 95.3912 90.197 97.496 89.177 99.9586C88.157 102.421 87.8901 105.131 88.4101 107.745C88.9301 110.36 90.2137 112.761 92.0985 114.646C93.9832 116.531 96.3846 117.814 98.9989 118.334C101.613 118.854 104.323 118.587 106.786 117.567C109.248 116.547 111.353 114.82 112.834 112.603C114.315 110.387 115.105 107.782 115.105 105.116C115.101 101.543 113.68 98.1173 111.153 95.5907C108.627 93.0642 105.201 91.643 101.628 91.639V91.639ZM101.628 115.897C99.4958 115.897 97.4115 115.265 95.6385 114.08C93.8656 112.895 92.4838 111.212 91.6678 109.242C90.8518 107.272 90.6383 105.104 91.0543 103.013C91.4703 100.921 92.4971 99.0005 94.0048 97.4927C95.5126 95.985 97.4336 94.9582 99.5249 94.5422C101.616 94.1262 103.784 94.3397 105.754 95.1557C107.724 95.9717 109.408 97.3535 110.592 99.1264C111.777 100.899 112.409 102.984 112.409 105.116C112.406 107.974 111.269 110.714 109.248 112.736C107.227 114.757 104.486 115.894 101.628 115.897V115.897Z" fill="#E35151"/>
<path d="M105.848 101.242L97.2426 109.848" stroke="#E35151" stroke-width="2.7"/>
<path d="M105.848 109.968L97.2426 101.363" stroke="#E35151" stroke-width="2.7"/>
</g>
<defs>
<clipPath id="clip0">
<rect width="210.151" height="202.153" fill="white"/>
</clipPath>
</defs>
</svg>
