<svg xmlns="http://www.w3.org/2000/svg" width="210.151" height="202.153" viewBox="0 0 210.151 202.153"><defs><style>.a,.c{fill:#03ad3d;}.a,.b{opacity:0.1;}</style></defs><g transform="translate(-96.849 -309.861)"><circle class="a" cx="71.993" cy="71.993" r="71.993" transform="translate(126 339)"/><g class="b" transform="translate(96.849 309.861)"><path class="c" d="M214.242,219.923A101.077,101.077,0,1,1,315.314,118.851,101.191,101.191,0,0,1,214.242,219.923Zm0-200.813a99.741,99.741,0,1,0,99.741,99.741A99.852,99.852,0,0,0,214.242,19.11Z" transform="translate(-113.161 -17.77)"/></g><circle class="c" cx="10.5" cy="10.5" r="10.5" transform="translate(286 394)"/><circle class="c" cx="8.5" cy="8.5" r="8.5" transform="translate(122 428)"/><circle class="c" cx="6.5" cy="6.5" r="6.5" transform="translate(99 365)"/><circle class="c" cx="6.5" cy="6.5" r="6.5" transform="translate(245 490)"/><circle class="c" cx="4.5" cy="4.5" r="4.5" transform="translate(237 316)"/><g transform="translate(-4386 -1240)"><path class="c" d="M63.65,19.668a1.189,1.189,0,0,0,1.189-1.189V7.213a4.127,4.127,0,0,0-4.122-4.122H45.169A3.8,3.8,0,0,0,41.443,0H23.4a3.8,3.8,0,0,0-3.727,3.091H4.122A4.127,4.127,0,0,0,0,7.213V77.045a4.127,4.127,0,0,0,4.122,4.122h56.6a4.127,4.127,0,0,0,4.122-4.122V22.918a1.189,1.189,0,0,0-2.378,0V77.045a1.746,1.746,0,0,1-1.744,1.744H4.122a1.746,1.746,0,0,1-1.744-1.744V7.213A1.746,1.746,0,0,1,4.122,5.469H19.605c.089,1.181-.3,2.412.655,3.808H7.372a1.189,1.189,0,0,0-1.189,1.189v30.87a1.189,1.189,0,0,0,2.378,0V11.655H26.424a6.051,6.051,0,0,0,11.99,0H56.278V72.6H8.561V45.775a1.189,1.189,0,0,0-2.378,0V73.792a1.189,1.189,0,0,0,1.189,1.189h50.1a1.189,1.189,0,0,0,1.189-1.189V10.466a1.189,1.189,0,0,0-1.189-1.189H44.579c.949-1.393.567-2.642.655-3.808H60.717a1.746,1.746,0,0,1,1.744,1.744V18.479a1.189,1.189,0,0,0,1.189,1.189Zm-34.9-8.836V9.751a1.189,1.189,0,0,0-1.189-1.189H23.4a1.415,1.415,0,0,1-1.413-1.413V3.791A1.415,1.415,0,0,1,23.4,2.378H41.443a1.415,1.415,0,0,1,1.413,1.413V7.149a1.415,1.415,0,0,1-1.413,1.413H37.281a1.189,1.189,0,0,0-1.189,1.189v1.081a3.673,3.673,0,0,1-7.346,0Zm0,0" transform="translate(4552 1610)"/></g><g transform="translate(185 401.5)"><g transform="translate(6.738 9.434)"><g transform="translate(0 0)"><path class="c" d="M63.069,70.437a1.348,1.348,0,0,0-1.906,0l-5.785,5.785-3.09-3.09a1.348,1.348,0,0,0-1.906,1.906l4.043,4.043a1.348,1.348,0,0,0,1.906,0l6.738-6.738A1.348,1.348,0,0,0,63.069,70.437Z" transform="translate(-49.987 -70.043)"/></g></g><path class="c" d="M13.477.06A13.477,13.477,0,1,0,26.954,13.537,13.492,13.492,0,0,0,13.477.06Zm0,24.258A10.781,10.781,0,1,1,24.258,13.537,10.794,10.794,0,0,1,13.477,24.318Z" transform="translate(0 -0.06)"/></g></g></svg>