<svg xmlns="http://www.w3.org/2000/svg" xmlns:xlink="http://www.w3.org/1999/xlink" width="301.588" height="271" viewBox="0 0 301.588 271"><defs><style>.a{fill:#f18a00;}.a,.b,.c,.l,.m,.n,.o,.p,.q,.r,.s,.t{fill-rule:evenodd;}.b,.e{fill:#342f2e;}.c,.f{fill:#fff;}.d{opacity:0.24;}.g,.n{fill:#fcbe1b;}.h{fill:#b0b5b9;}.i{fill:#5e5d5c;}.j{fill:#eae8e8;}.k{fill:#edebeb;}.l{fill:#f5ac83;}.m{fill:#00000f;}.o{fill:#294d3c;}.p{fill:#4a9075;}.q{fill:#1b7154;}.r{fill:#a6c86b;}.s{fill:#5f9850;}.t{fill:#161414;}.u{filter:url(#a);}</style><filter id="a" x="79.485" y="112.869" width="67.852" height="29.007" filterUnits="userSpaceOnUse"><feOffset dx="2" dy="1" input="SourceAlpha"/><feGaussianBlur stdDeviation="1.5" result="b"/><feFlood flood-opacity="0.4"/><feComposite operator="in" in2="b"/><feComposite in="SourceGraphic"/></filter></defs><g transform="translate(-190.988 -40)"><path class="a" d="M329.559,230.587c9.051,1.36,24.77,3.246,26.718,2.569,2.643-.921,17.537-16.375,18.827-20.378,0,0,.123-.444-.405-.525s-2.382.15-2.959-.531-.994-.132-1.4.733-12.3,10.921-15.392,12.922-21.32-6.4-23.713-7.125C320.152,214.875,316.167,228.574,329.559,230.587Z" transform="translate(-49.239 -64.871)"/><path class="b" d="M220.985,472.89h-3.019a2.441,2.441,0,0,1-2.293-2.554h0a2.441,2.441,0,0,1,2.293-2.555h3.019a2.441,2.441,0,0,1,2.292,2.555h0A2.441,2.441,0,0,1,220.985,472.89Z" transform="translate(-9.342 -161.89)"/><path class="c" d="M507.654,269.42l7.035-8.409c5.465-6.534-3.741-10.759-7.035-5.818-3.294-4.941-12.5-.716-7.035,5.818Z" transform="translate(-116.535 -80.621)"/><path class="b" d="M236.62,472.89H506.962c1.027,0,1.865-1.149,1.865-2.554h0c0-1.405-.839-2.555-1.865-2.555H236.62c-1.026,0-1.865,1.149-1.865,2.555h0C234.755,471.74,235.593,472.89,236.62,472.89Z" transform="translate(-16.563 -161.89)"/><path class="c" d="M406.476,343.833a5.5,5.5,0,0,1,2.289-2.6,3.78,3.78,0,0,0,1.852-2.471,14.858,14.858,0,0,0,.356-3.867.5.5,0,0,1,.5-.5h1.48a1.138,1.138,0,0,1,.336.054,2.792,2.792,0,0,1,1.4,1.327,5.225,5.225,0,0,1,.652,2.561,5.842,5.842,0,0,1-.273,1.761,4.017,4.017,0,0,0-.3,2.331c.083.2.316.243.576.243h3.709a4.518,4.518,0,0,1,1.165.143,2.614,2.614,0,0,1,1.313.775,2.5,2.5,0,0,1,.585,1.71,4.855,4.855,0,0,1-.151,1.143c.25.608.98,2.744-.439,4.048a3.183,3.183,0,0,1-1.114,2.988,3.324,3.324,0,0,1-3.256,2.513h-6.8a6.059,6.059,0,0,1-3.562-1.669v.2a1.554,1.554,0,0,1-.458,1.1l-.034.03a1.552,1.552,0,0,1-1.068.427h-3.09a1.563,1.563,0,0,1-1.561-1.56v-9.76a1.556,1.556,0,0,1,.458-1.1l.034-.031a1.554,1.554,0,0,1,1.069-.428h3.09a1.553,1.553,0,0,1,1.1.459,1.512,1.512,0,0,1,.149.171Zm.311,9.128c.456.475,2.065,2.032,3.562,2.032h6.8a2.4,2.4,0,0,0,2.338-1.939.5.5,0,0,1,.266-.346c1-.5.785-2.09.75-2.318a.5.5,0,0,1,.193-.508c1.249-.92.421-2.885.3-3.156a.5.5,0,0,1-.045-.367,4.073,4.073,0,0,0,.159-1.055,1.538,1.538,0,0,0-.334-1.052,1.632,1.632,0,0,0-.82-.466,3.546,3.546,0,0,0-.907-.109h-3.709a1.427,1.427,0,0,1-1.5-.861,4.723,4.723,0,0,1,.272-3.011,4.921,4.921,0,0,0,.229-1.465,4.214,4.214,0,0,0-.521-2.069,1.841,1.841,0,0,0-.825-.865l-.039-.008h-.981a14.18,14.18,0,0,1-.392,3.636,4.734,4.734,0,0,1-2.341,3.082c-1.932,1.04-2.4,3.687-2.452,4.044v6.8Zm-1.56-8.755h-3.09a.563.563,0,0,0-.377.145l-.018.019a.559.559,0,0,0-.165.395v9.76a.562.562,0,0,0,.56.559h3.09a.56.56,0,0,0,.376-.146l.018-.019a.558.558,0,0,0,.165-.395v-9.76a.561.561,0,0,0-.559-.559Z" transform="translate(-79.316 -111.411)"/><g class="d" transform="translate(190.988 40)"><path class="b" d="M319.934,141.183a.705.705,0,0,0-1.41,0v1.658h-1.659a.705.705,0,0,0,0,1.411h1.659v1.659a.705.705,0,1,0,1.41,0v-1.659h1.658a.705.705,0,0,0,0-1.411h-1.658Z" transform="translate(-238.358 -78.025)"/><path class="b" d="M245.65,387.441Zm2.138-8.14a4.112,4.112,0,1,1-1.2,2.908,4.1,4.1,0,0,1,1.2-2.908Zm.888-4.076a7.242,7.242,0,0,0-1.612.686,7.325,7.325,0,0,0-1.414,1.066.252.252,0,0,1-.3.037l-1.911-1.1-.011-.006a.476.476,0,0,0-.636.18l-.008.012-1.344,2.328a.478.478,0,0,0,.173.648l.013.007,1.9,1.095a.252.252,0,0,1,.119.278h0a7.149,7.149,0,0,0-.16.869,7.363,7.363,0,0,0,0,1.771,7.149,7.149,0,0,0,.16.869.252.252,0,0,1-.134.287l-1.895,1.094h0a.477.477,0,0,0-.173.647l1.352,2.343h0a.477.477,0,0,0,.646.174l.014-.008,1.9-1.1a.253.253,0,0,1,.3.036,7.254,7.254,0,0,0,3.036,1.755.253.253,0,0,1,.183.243v2.2a.475.475,0,0,0,.473.473h2.705a.474.474,0,0,0,.472-.473v-2.2a.254.254,0,0,1,.195-.246,7.253,7.253,0,0,0,3.026-1.752.254.254,0,0,1,.314-.029l1.9,1.1a.477.477,0,0,0,.647-.174l.008-.013,1.345-2.33h0a.477.477,0,0,0-.173-.646l-1.909-1.1a.253.253,0,0,1-.119-.279h0a7.133,7.133,0,0,0,.16-.868,7.373,7.373,0,0,0,0-1.773,7.155,7.155,0,0,0-.16-.868.253.253,0,0,1,.134-.287l1.9-1.094a.478.478,0,0,0,.173-.647l-.007-.014-1.344-2.328h0a.471.471,0,0,0-.287-.22.476.476,0,0,0-.36.045h0l-1.911,1.1a.253.253,0,0,1-.307-.042,7.249,7.249,0,0,0-3.031-1.75.253.253,0,0,1-.184-.243v-2.2a.473.473,0,0,0-.472-.472h-2.705a.474.474,0,0,0-.473.472v2.2A.252.252,0,0,1,248.677,375.225Z" transform="translate(-210.057 -165.757)"/><path class="b" d="M250.642,222.4a9.676,9.676,0,1,1-2.1,3.148,9.713,9.713,0,0,1,2.1-3.148Zm3.487-1.275a8.842,8.842,0,1,0,3.364-.664,8.8,8.8,0,0,0-3.364.664Zm-1.071-7.129a15.6,15.6,0,0,0-1.785.636,15.867,15.867,0,0,0-1.715.857,16.056,16.056,0,0,0-3.092,2.33,1.008,1.008,0,0,1-.58.277,1.019,1.019,0,0,1-.632-.129c-1.423-.822-2.919-1.635-4.312-2.491a.593.593,0,0,0-.209-.065.648.648,0,0,0-.237.019.619.619,0,0,0-.218.106.612.612,0,0,0-.157.18c-1.037,1.569-2.078,3.6-3.039,5.26a.609.609,0,0,0-.076.224.644.644,0,0,0,.019.245.617.617,0,0,0,.285.375c1.28.846,2.929,1.692,4.286,2.476a1.009,1.009,0,0,1,.492.691l.088.029-.1.4q-.117.472-.2.942t-.145.955c-.039.324-.069.646-.088.963s-.028.636-.028.975.009.663.028.973.049.641.088.965.089.651.145.955.126.628.2.943a1.012,1.012,0,0,1-.523,1.144l-3.8,2.191v0l-.449.259a.608.608,0,0,0-.179.157.621.621,0,0,0-.106.218.648.648,0,0,0-.019.246.6.6,0,0,0,.076.223l2.81,4.869h0l.227.393a.606.606,0,0,0,.157.178.62.62,0,0,0,.218.106.635.635,0,0,0,.244.018.585.585,0,0,0,.223-.076c1.359-.854,2.893-1.669,4.295-2.479a1.016,1.016,0,0,1,1.208.145v0a16.016,16.016,0,0,0,1.477,1.261,15.8,15.8,0,0,0,1.614,1.069,15.741,15.741,0,0,0,3.544,1.505,1.018,1.018,0,0,1,.737.978v4.952a.6.6,0,0,0,.046.233.624.624,0,0,0,.135.2.605.605,0,0,0,.433.181h6.078a.608.608,0,0,0,.232-.046.628.628,0,0,0,.2-.134.644.644,0,0,0,.134-.2.6.6,0,0,0,.046-.233V245.5a1.023,1.023,0,0,1,.782-.99,15.471,15.471,0,0,0,1.785-.636,15.933,15.933,0,0,0,4.807-3.187,1.018,1.018,0,0,1,1.262-.115l4.24,2.448a.589.589,0,0,0,.224.075.642.642,0,0,0,.245-.018.622.622,0,0,0,.218-.106.616.616,0,0,0,.157-.178c1.008-1.757,2.03-3.506,3.039-5.262a.6.6,0,0,0,.075-.224.642.642,0,0,0-.124-.462.575.575,0,0,0-.175-.157l-4.289-2.477a1.007,1.007,0,0,1-.428-.479.979.979,0,0,1-.053-.163l-.112-.023.113-.454c.077-.315.145-.629.2-.942s.1-.624.145-.957.069-.646.088-.965.029-.635.029-.973-.009-.663-.029-.973-.048-.639-.088-.963-.09-.656-.145-.958-.125-.626-.2-.94a1.009,1.009,0,0,1,.064-.67,1.027,1.027,0,0,1,.456-.474l4.248-2.452a.585.585,0,0,0,.177-.157.624.624,0,0,0,.106-.219.637.637,0,0,0,.017-.244.6.6,0,0,0-.075-.224c-1.037-1.543-2.077-3.6-3.039-5.261a.613.613,0,0,0-.157-.18.621.621,0,0,0-.218-.106.629.629,0,0,0-.244-.019.606.606,0,0,0-.224.076l-4.292,2.478a1,1,0,0,1-.643.127,1.015,1.015,0,0,1-.58-.286,15.854,15.854,0,0,0-4.805-3.179,15.56,15.56,0,0,0-1.817-.644,1.015,1.015,0,0,1-.737-.977l0-4.953a.613.613,0,0,0-.045-.233.641.641,0,0,0-.136-.2.6.6,0,0,0-.432-.181h-6.078a.6.6,0,0,0-.233.046.61.61,0,0,0-.2.134.617.617,0,0,0-.181.433v4.953a1.012,1.012,0,0,1-.218.629,1.026,1.026,0,0,1-.564.36Zm-2.136-.188a16.82,16.82,0,0,0-5.076,3.366.117.117,0,0,1-.068.032.122.122,0,0,1-.074-.014q-2.164-1.249-4.329-2.5a1.494,1.494,0,0,0-.542-.17,1.525,1.525,0,0,0-1.1.3,1.5,1.5,0,0,0-.388.443c-1.045,1.693-2.039,3.529-3.039,5.261a1.491,1.491,0,0,0-.188.559,1.545,1.545,0,0,0,.039.589,1.527,1.527,0,0,0,.261.53,1.491,1.491,0,0,0,.442.388c1.38.852,2.877,1.661,4.289,2.476a.119.119,0,0,1,.049.056.12.12,0,0,1,.006.075l-.1.4.006,0c-.043.195-.083.392-.12.593q-.094.515-.155,1.013t-.092,1.016c-.021.35-.032.693-.032,1.027s.011.676.032,1.026.052.689.092,1.018.092.668.155,1.011.134.674.213,1a.111.111,0,0,1-.008.078.115.115,0,0,1-.053.058c-1.576.842-3.176,1.832-4.734,2.733l.055.069-.048.06a1.521,1.521,0,0,0-.3,1.119,1.48,1.48,0,0,0,.189.558l3.265,5.656.061-.037a1.188,1.188,0,0,0,.1.085,1.522,1.522,0,0,0,1.662.121c1.428-.758,2.9-1.674,4.309-2.489a.12.12,0,0,1,.071-.012.126.126,0,0,1,.071.032,16.845,16.845,0,0,0,3.261,2.458,16.82,16.82,0,0,0,3.747,1.592.121.121,0,0,1,.063.042.11.11,0,0,1,.024.073v4.952a1.514,1.514,0,0,0,.446,1.068,1.537,1.537,0,0,0,.49.328,1.482,1.482,0,0,0,.576.116h6.078a1.487,1.487,0,0,0,.576-.116,1.554,1.554,0,0,0,.49-.328,1.517,1.517,0,0,0,.328-.491,1.5,1.5,0,0,0,.116-.577V245.5a.121.121,0,0,1,.024-.075.123.123,0,0,1,.068-.042l.019-.007a16.537,16.537,0,0,0,3.723-1.584,16.822,16.822,0,0,0,3.264-2.46.115.115,0,0,1,.07-.033.128.128,0,0,1,.077.019l4.289,2.476a1.486,1.486,0,0,0,.557.188,1.515,1.515,0,0,0,1.119-.3,1.5,1.5,0,0,0,.381-.429c1.127-1.812,2.191-3.8,3.266-5.657l-.058-.035c.011-.047.019-.1.025-.142a1.541,1.541,0,0,0-.039-.588,1.518,1.518,0,0,0-.261-.53,1.5,1.5,0,0,0-.441-.388l-4.29-2.477a.112.112,0,0,1-.048-.055.125.125,0,0,1-.007-.078l.111-.454h-.007q.059-.265.108-.538c.063-.342.115-.681.155-1.012s.071-.669.091-1.018.032-.692.032-1.026-.011-.676-.032-1.026-.052-.689-.091-1.019-.092-.666-.155-1.012-.134-.672-.214-.993a.126.126,0,0,1,.009-.08.122.122,0,0,1,.055-.056l4.284-2.473a1.471,1.471,0,0,0,.44-.389,1.516,1.516,0,0,0,.3-1.116,1.518,1.518,0,0,0-.181-.547c-1.021-1.891-2.192-3.8-3.272-5.669l-.061.037c-.032-.03-.066-.058-.1-.085a1.522,1.522,0,0,0-1.118-.3,1.508,1.508,0,0,0-.557.185l-.317.182v0l-3.979,2.3a.123.123,0,0,1-.076.016.12.12,0,0,1-.068-.034l-.011-.011a16.77,16.77,0,0,0-5.075-3.358,16.635,16.635,0,0,0-1.922-.682.118.118,0,0,1-.063-.042.108.108,0,0,1-.024-.073v-4.953a1.511,1.511,0,0,0-.446-1.067,1.517,1.517,0,0,0-.489-.329,1.5,1.5,0,0,0-.576-.116h-6.078a1.492,1.492,0,0,0-.576.116,1.548,1.548,0,0,0-.492.329,1.505,1.505,0,0,0-.444,1.067v4.953a.131.131,0,0,1-.024.076.128.128,0,0,1-.066.041l-.019.006A16.854,16.854,0,0,0,250.922,213.807Z" transform="translate(-208.063 -103.026)"/><path class="b" d="M337.031,49.015a.706.706,0,0,0-1.411,0v1.658h-1.658a.705.705,0,1,0,0,1.411h1.658v1.658a.706.706,0,0,0,1.411,0V52.084h1.658a.705.705,0,0,0,0-1.411h-1.658Z" transform="translate(-244.828 -43.145)"/><path class="b" d="M636.856,87.559a.705.705,0,0,0-1.41,0v1.659h-1.658a.705.705,0,1,0,0,1.41h1.658v1.658a.705.705,0,1,0,1.41,0V90.628h1.658a.705.705,0,1,0,0-1.41h-1.658Z" transform="translate(-358.294 -57.731)"/><path class="b" d="M670.1,229.659a.705.705,0,1,0-1.41,0v1.659h-1.658a.705.705,0,1,0,0,1.41h1.658v1.658a.705.705,0,1,0,1.41,0v-1.658h1.658a.705.705,0,1,0,0-1.41H670.1Z" transform="translate(-370.874 -111.508)"/><path class="b" d="M669.23,414.039a.705.705,0,0,0-1.41,0V415.7h-1.659a.705.705,0,0,0,0,1.411h1.659v1.658a.705.705,0,1,0,1.41,0v-1.658h1.659a.705.705,0,1,0,0-1.411H669.23Z" transform="translate(-370.546 -181.285)"/><path class="b" d="M194.763,418.977a.705.705,0,1,0-1.41,0v1.659h-1.658a.7.7,0,1,0,0,1.41h1.658v1.659a.705.705,0,1,0,1.41,0v-1.659h1.658a.7.7,0,1,0,0-1.41h-1.658Z" transform="translate(-190.988 -183.153)"/><path class="b" d="M248.523,317.634a.705.705,0,1,0-1.41,0v1.658h-1.658a.705.705,0,1,0,0,1.411h1.658v1.658a.705.705,0,0,0,1.41,0V320.7h1.659a.705.705,0,0,0,0-1.411h-1.659Z" transform="translate(-211.333 -144.801)"/><path class="b" d="M279.44,86.738Zm2.138-8.139a4.112,4.112,0,1,1-1.2,2.908,4.1,4.1,0,0,1,1.2-2.908Zm.888-4.076a7.226,7.226,0,0,0-1.612.686,7.324,7.324,0,0,0-1.414,1.066.252.252,0,0,1-.3.037l-1.911-1.1-.011-.006a.476.476,0,0,0-.636.18l-.008.012-1.344,2.328a.477.477,0,0,0,.173.648l.013.008,1.9,1.095a.252.252,0,0,1,.119.278h0a7.275,7.275,0,0,0-.16.869,7.367,7.367,0,0,0,0,1.771,7.265,7.265,0,0,0,.16.868.253.253,0,0,1-.134.287L275.4,84.642h0a.477.477,0,0,0-.173.647l1.352,2.343h0a.477.477,0,0,0,.646.174l.014-.008,1.9-1.1a.255.255,0,0,1,.3.037,7.349,7.349,0,0,0,1.414,1.066,7.2,7.2,0,0,0,1.622.689.254.254,0,0,1,.184.244v2.2a.475.475,0,0,0,.472.473h2.705a.476.476,0,0,0,.473-.473v-2.2a.254.254,0,0,1,.194-.247,7.185,7.185,0,0,0,1.612-.686,7.332,7.332,0,0,0,1.414-1.066.253.253,0,0,1,.314-.029l1.9,1.1a.477.477,0,0,0,.647-.174l.008-.013,1.345-2.33h0a.476.476,0,0,0-.173-.646l-1.909-1.1a.253.253,0,0,1-.119-.279h0a7.156,7.156,0,0,0,.16-.869,7.368,7.368,0,0,0,0-1.772,7.167,7.167,0,0,0-.16-.868.253.253,0,0,1,.134-.287l1.9-1.095a.477.477,0,0,0,.173-.646l-.007-.014-1.344-2.328h0a.476.476,0,0,0-.646-.175h0l-1.911,1.1a.253.253,0,0,1-.307-.042,7.331,7.331,0,0,0-1.408-1.06,7.186,7.186,0,0,0-1.622-.689.252.252,0,0,1-.184-.243v-2.2a.474.474,0,0,0-.473-.472h-2.705a.473.473,0,0,0-.472.472v2.2A.253.253,0,0,1,282.467,74.523Z" transform="translate(-222.845 -51.959)"/><path class="b" d="M612.307,183.8Zm2.138-8.14a4.111,4.111,0,1,1-1.2,2.908,4.1,4.1,0,0,1,1.2-2.908Zm.888-4.076a7.274,7.274,0,0,0-3.026,1.753.253.253,0,0,1-.3.036l-1.911-1.1-.011-.006a.479.479,0,0,0-.636.18l-.008.014-1.344,2.328a.477.477,0,0,0,.174.648l.013.007,1.9,1.095a.252.252,0,0,1,.119.278h0a7.318,7.318,0,0,0,0,3.51.251.251,0,0,1-.134.286l-1.895,1.095h0a.477.477,0,0,0-.174.647l1.352,2.342h0a.476.476,0,0,0,.647.173l.014-.007,1.9-1.1a.251.251,0,0,1,.3.037,7.286,7.286,0,0,0,1.414,1.065,7.2,7.2,0,0,0,1.622.69.253.253,0,0,1,.184.242V188a.475.475,0,0,0,.473.473h2.7a.477.477,0,0,0,.473-.473v-2.2a.253.253,0,0,1,.195-.246,7.183,7.183,0,0,0,1.611-.687A7.273,7.273,0,0,0,622.4,183.8a.25.25,0,0,1,.314-.029l1.9,1.095a.475.475,0,0,0,.647-.173l.009-.012,1.344-2.33h0a.478.478,0,0,0-.172-.647l-1.909-1.1a.25.25,0,0,1-.119-.278h0a7.428,7.428,0,0,0,.159-.87,7.363,7.363,0,0,0,0-1.771,7.393,7.393,0,0,0-.159-.869.252.252,0,0,1,.133-.287l1.9-1.094a.477.477,0,0,0,.172-.646l-.007-.014-1.344-2.329h0a.478.478,0,0,0-.646-.173h0l-1.911,1.1a.251.251,0,0,1-.306-.042,7.3,7.3,0,0,0-1.41-1.06,7.214,7.214,0,0,0-1.621-.69.252.252,0,0,1-.184-.242v-2.2a.475.475,0,0,0-.473-.473H616a.474.474,0,0,0-.473.473v2.2A.253.253,0,0,1,615.333,171.586Z" transform="translate(-348.815 -88.691)"/><path class="b" d="M490.476,55.139ZM492.614,47a4.11,4.11,0,1,1-1.205,2.908A4.1,4.1,0,0,1,492.614,47Zm.888-4.076a7.23,7.23,0,0,0-1.612.687,7.338,7.338,0,0,0-1.414,1.065.252.252,0,0,1-.3.037l-1.911-1.1-.01-.006a.477.477,0,0,0-.637.18l-.007.013-1.344,2.328a.476.476,0,0,0,.173.648l.012.007,1.9,1.094a.252.252,0,0,1,.12.278h0a7.034,7.034,0,0,0-.16.869,7.363,7.363,0,0,0,0,1.771,7.065,7.065,0,0,0,.16.87.253.253,0,0,1-.134.286l-1.9,1.094h0a.476.476,0,0,0-.173.648l1.351,2.342h0a.477.477,0,0,0,.647.173l.014-.007,1.9-1.1a.252.252,0,0,1,.3.035,7.25,7.25,0,0,0,3.037,1.756.252.252,0,0,1,.183.242v2.2a.474.474,0,0,0,.472.472h2.705a.475.475,0,0,0,.473-.472v-2.2a.253.253,0,0,1,.194-.246,7.26,7.26,0,0,0,3.026-1.753.252.252,0,0,1,.313-.028l1.9,1.1a.476.476,0,0,0,.646-.173l.009-.014,1.345-2.33h0a.477.477,0,0,0-.172-.646l-1.909-1.1a.251.251,0,0,1-.119-.278h0a7.314,7.314,0,0,0,.16-.87,7.368,7.368,0,0,0,0-1.772,7.294,7.294,0,0,0-.16-.868.251.251,0,0,1,.134-.287l1.9-1.094a.478.478,0,0,0,.172-.647l-.007-.014-1.344-2.329h0a.475.475,0,0,0-.646-.173h0l-1.91,1.1a.253.253,0,0,1-.307-.042,7.278,7.278,0,0,0-1.409-1.06,7.191,7.191,0,0,0-1.622-.69.252.252,0,0,1-.184-.242v-2.2a.476.476,0,0,0-.473-.474h-2.705a.475.475,0,0,0-.472.474v2.2A.253.253,0,0,1,493.5,42.923Z" transform="translate(-302.709 -40)"/></g><g transform="translate(307.745 65.026)"><g transform="translate(0)"><path class="e" d="M478.091,320.679,396.52,320.3a17.768,17.768,0,0,1-17.686-17.843l.864-204.5a17.77,17.77,0,0,1,17.851-17.694l81.571.377a17.769,17.769,0,0,1,17.686,17.844l-.865,204.5A17.768,17.768,0,0,1,478.091,320.679Z" transform="translate(-378.834 -80.264)"/><g transform="translate(4.99 7.165)"><path class="f" d="M481.616,92.168,465.8,92.1a3.928,3.928,0,0,0-3.857,4l-.013,2.868a3.928,3.928,0,0,1-3.857,4l-30.828-.142a3.933,3.933,0,0,1-3.823-4.033l.012-2.868a3.934,3.934,0,0,0-3.824-4.033l-5.562-.025-13.842-.064a12.445,12.445,0,0,0-12.5,12.392l-.844,199.607a12.445,12.445,0,0,0,12.387,12.5l81.408.375a12.444,12.444,0,0,0,12.5-12.391L494,104.664A12.444,12.444,0,0,0,481.616,92.168Z" transform="translate(-386.862 -91.792)"/></g></g></g><g transform="translate(327.031 146.487)"><path class="g" d="M426.992,227.411l31.054.029,20.935.043,5.692.025,1.48.014c.333,0,.5.014.5.014s-.171.009-.5.014l-1.48.013-5.692.026-20.935.043-31.054.029-8.977,0-4.636,0a10.016,10.016,0,0,1-1.2-.036,3.168,3.168,0,0,1-1.146-.377,2.094,2.094,0,0,1-1.161-1.668q0-3.708-.009-7.541,0-1.914,0-3.854a7.549,7.549,0,0,1,.03-.99,1.908,1.908,0,0,1,.489-.957,3.136,3.136,0,0,1,2.3-.923l69.074.04,3.235,0,1.556,0a3.442,3.442,0,0,1,1.505.3,2.08,2.08,0,0,1,1.351,1.962q0,1.093-.007,2.116c-.012,2.725-.022,5.073-.03,7-.006.959-.011,1.811-.016,2.551a1.921,1.921,0,0,1-.864,1.708,2.967,2.967,0,0,1-1.321.511,2.4,2.4,0,0,1-.5.024c0-.011.173,0,.5-.052" transform="translate(-409.861 -211.323)"/></g><g transform="translate(327.031 171.572)"><path class="h" d="M486.658,267.893c0-.011.173,0,.5-.052a2.954,2.954,0,0,0,1.279-.523,1.856,1.856,0,0,0,.808-1.668c0-.74-.01-1.592-.016-2.552-.009-1.922-.019-4.271-.03-7q0-1.023-.007-2.116a1.92,1.92,0,0,0-1.256-1.813,7.614,7.614,0,0,0-2.948-.267l-3.235.005-69.074.04a2.745,2.745,0,0,0-2.013.809,1.665,1.665,0,0,0-.428.837,7.454,7.454,0,0,0-.027.952q0,1.94,0,3.854,0,3.824,0,7.529a1.837,1.837,0,0,0,1.019,1.466,2.776,2.776,0,0,0,1.006.333,9.745,9.745,0,0,0,1.141.032l4.636,0,8.977,0,31.054.029,20.935.043,5.692.025,1.48.014c.333,0,.5.014.5.014s-.171.009-.5.014l-1.48.014-5.692.025-20.935.043-31.054.029-8.977.005H413.38a9.9,9.9,0,0,1-1.2-.035,3.169,3.169,0,0,1-1.146-.377,2.094,2.094,0,0,1-1.161-1.668q0-3.709-.009-7.541,0-1.913,0-3.854a7.548,7.548,0,0,1,.03-.99,1.905,1.905,0,0,1,.489-.957,3.136,3.136,0,0,1,2.3-.923l69.074.04,3.235.005,1.556,0a3.442,3.442,0,0,1,1.505.3,2.08,2.08,0,0,1,1.351,1.962q0,1.093-.007,2.116c-.012,2.725-.022,5.073-.03,7-.006.959-.011,1.811-.016,2.552a1.921,1.921,0,0,1-.864,1.708,2.967,2.967,0,0,1-1.321.511A2.393,2.393,0,0,1,486.658,267.893Z" transform="translate(-409.861 -251.68)"/></g><g transform="translate(327.031 196.656)"><path class="h" d="M486.658,308.25c0-.011.173,0,.5-.052a2.961,2.961,0,0,0,1.279-.523,1.856,1.856,0,0,0,.808-1.668c0-.74-.01-1.592-.016-2.552-.009-1.922-.019-4.271-.03-7q0-1.023-.007-2.116a1.921,1.921,0,0,0-1.256-1.814,7.627,7.627,0,0,0-2.948-.267l-3.235,0-69.074.04a2.747,2.747,0,0,0-2.013.808,1.67,1.67,0,0,0-.428.838,7.455,7.455,0,0,0-.027.952q0,1.94,0,3.854,0,3.824,0,7.529a1.838,1.838,0,0,0,1.019,1.466,2.776,2.776,0,0,0,1.006.333,9.611,9.611,0,0,0,1.141.032l4.636,0,8.977,0,31.054.029,20.935.043,5.692.026,1.48.014c.333,0,.5.014.5.014s-.171.009-.5.014l-1.48.014-5.692.026-20.935.043-31.054.029-8.977,0-4.636,0a9.886,9.886,0,0,1-1.2-.035,3.181,3.181,0,0,1-1.146-.377,2.094,2.094,0,0,1-1.161-1.668q0-3.708-.009-7.541,0-1.913,0-3.854a7.549,7.549,0,0,1,.03-.99,1.905,1.905,0,0,1,.489-.957,3.135,3.135,0,0,1,2.3-.923l69.074.04,3.235,0,1.556,0a3.432,3.432,0,0,1,1.505.3,2.08,2.08,0,0,1,1.351,1.962q0,1.093-.007,2.116c-.012,2.725-.022,5.073-.03,7-.006.959-.011,1.811-.016,2.552a1.921,1.921,0,0,1-.864,1.708,2.967,2.967,0,0,1-1.321.511A2.393,2.393,0,0,1,486.658,308.25Z" transform="translate(-409.861 -292.037)"/></g><g transform="translate(327.031 221.74)"><path class="h" d="M486.658,348.607c0-.011.173,0,.5-.052a2.961,2.961,0,0,0,1.279-.523,1.856,1.856,0,0,0,.808-1.668c0-.74-.01-1.592-.016-2.552-.009-1.922-.019-4.271-.03-7q0-1.023-.007-2.115a1.921,1.921,0,0,0-1.256-1.814,7.625,7.625,0,0,0-2.948-.267l-3.235,0-69.074.04a2.747,2.747,0,0,0-2.013.808,1.668,1.668,0,0,0-.428.837,7.465,7.465,0,0,0-.027.952q0,1.94,0,3.854,0,3.824,0,7.529a1.838,1.838,0,0,0,1.019,1.466,2.775,2.775,0,0,0,1.006.333,9.742,9.742,0,0,0,1.141.032l4.636,0,8.977.005,31.054.029,20.935.043,5.692.025,1.48.013c.333,0,.5.014.5.014s-.171.009-.5.014l-1.48.014-5.692.025-20.935.043-31.054.029-8.977,0-4.636,0a9.9,9.9,0,0,1-1.2-.035,3.181,3.181,0,0,1-1.146-.377,2.094,2.094,0,0,1-1.161-1.668q0-3.708-.009-7.541,0-1.913,0-3.854a7.549,7.549,0,0,1,.03-.99,1.905,1.905,0,0,1,.489-.957,3.136,3.136,0,0,1,2.3-.923l69.074.04,3.235,0,1.556,0a3.442,3.442,0,0,1,1.505.3A2.079,2.079,0,0,1,489.4,334.7q0,1.092-.007,2.115c-.012,2.726-.022,5.074-.03,7-.006.959-.011,1.811-.016,2.552a1.921,1.921,0,0,1-.864,1.708,2.967,2.967,0,0,1-1.321.511A2.453,2.453,0,0,1,486.658,348.607Z" transform="translate(-409.861 -332.394)"/></g><rect class="i" width="29.992" height="2.249" transform="translate(350.627 279.003)"/><rect class="i" width="52.549" height="2.249" transform="translate(327.03 128.4)"/><rect class="i" width="76.154" height="2.249" transform="translate(327.03 121.889)"/><rect class="i" width="76.154" height="2.249" transform="translate(327.03 114.757)"/><g transform="translate(260.443 122.412)"><path class="b" d="M304.082,461.645s.745-1.31,1.845-.724,1.3.518,2.332-.173,3.2.1,3.2.1,6.289,2.172,7.1,2.517,1.457,1,1.457,2.9l-.875.931H304.308s-.745-.655-.777-1.207S303.5,462.473,304.082,461.645Z" transform="translate(-303.029 -281.534)"/><rect class="j" width="17.534" height="1.792" rx="0.833" transform="translate(0 184.491)"/><path class="b" d="M362.691,461.071s.785-1.381,1.945-.763,1.365.545,2.457-.182,3.371.108,3.371.108,6.628,2.29,7.482,2.653,1.536,1.054,1.536,3.053l-.922.981H362.93s-.785-.691-.819-1.272S362.076,461.943,362.691,461.071Z" transform="translate(-325.198 -281.292)"/><rect class="k" width="18.48" height="1.89" rx="0.878" transform="translate(36.384 184.394)"/><path class="l" d="M411.862,224.092A4.415,4.415,0,0,0,413,221.156a10.176,10.176,0,0,1,.209-3.653c.48-1.647,1.019-1.109,1.168-.121a14.705,14.705,0,0,0,.6,2.246s2.516-2.1,3.475-3.054,1.977-.868,1.916-.09-.359.779-.06.9a.633.633,0,0,1,.449.839l-.12.539s.659.09.689.6a2.4,2.4,0,0,1-.42,1.168s.749.39.6.748a14.123,14.123,0,0,1-3.115,3.115c-1.228.808-3.235,1.8-3.833,2.574S411.862,224.092,411.862,224.092Z" transform="translate(-344.03 -188.972)"/><path class="m" d="M339.929,300.589c1.191-.3,2.284-.618,2.678.882a252.425,252.425,0,0,1,7.98,45.823c.438,6.617-5.227,8.2-7.438,7.027-6.626-3.528-19.945-45.422-19.979-45.661C322.209,301.993,339.929,300.589,339.929,300.589Z" transform="translate(-310.452 -220.934)"/><path class="b" d="M331.054,304c1.226.085,2.363.126,2.27,1.674a252.407,252.407,0,0,1-6.7,46.027c-1.646,6.424-7.523,6.167-9.257,4.36-5.2-5.416-4.8-49.374-4.756-49.612C313.778,299.816,331.054,304,331.054,304Z" transform="translate(-306.463 -221.828)"/><path class="m" d="M361.119,376.118c.375,11.294-.211,35.65,3,49.228-.97,1.181-4.079,2.046-5.449.812-1.207-1.086-7.559-32.215-8.8-49.529,0,0-.415-6.179,1.858-8.339C353.951,366.175,360.682,366.349,361.119,376.118Z" transform="translate(-320.558 -246.238)"/><path class="b" d="M323.238,380.615c-3,10.292-10.487,31.485-12.255,45.5-.523,4.153-5.258,1.256-5.4,1.008-.808-1.408,2.591-32.693,6.8-49.532,0,0,1.53-6,4.364-7.346C319.525,368.932,325.867,371.2,323.238,380.615Z" transform="translate(-303.764 -247.262)"/><path class="n" d="M312.18,273.519c3.813,9.1,25.946,7.894,27.875,4.128h0c.646-1.264.272-3.137-.019-4.812-3.736-21.458,5.513-47.529-9.5-54.927l-2.057-1.014a4.742,4.742,0,0,1,.328-2.556c-1.686-.3-3.148,2.112-4.954,2.187l-1.733-.658c-12.084,6.38-5.687,23.144-7.564,38.481C313.747,261,310.449,269.39,312.18,273.519Z" transform="translate(-306.119 -188.379)"/><g class="u" transform="matrix(1, 0, 0, 1, -69.45, -82.41)"><path class="n" d="M331.342,242.187c10.033,2.356,21.752,5.48,23.994,4.989,2.89-.633,22.849-11.2,26.4-15.677.058-.073-2.288-3.022-2.6-3.424-.588-.762-.145-1.259-.679-.411s-19.6,7.72-23.232,9.452S338.1,230.2,335.48,229.194C323.345,224.546,316.5,238.7,331.342,242.187Z" transform="translate(-240.9 -110.85)"/></g><path class="l" d="M355.391,186.159l.721,4.345s-3.557,10.915-5.37,12.769-3.305,2.5-5.862,1.518-1.76-5.143-1.746-6.4S346.806,186.165,355.391,186.159Z" transform="translate(-317.972 -177.725)"/><path class="l" d="M340.47,206.579l2.494,1.545s-4.309,8.072-4.838,8.3-9.333-3.806-8.486-4.923a21.339,21.339,0,0,0,2.533-3.312c.624-1.274,1.241-3.052,1.241-3.052Z" transform="translate(-312.892 -184.906)"/><path class="c" d="M338.493,218.73a1.206,1.206,0,0,1,.255.921c-.075.311-.249,1.172-.359,1.717l-.094.474s-.718.577-3.087-.617-6.643-3.926-6.889-4.394.948-2.443.948-2.443S335.207,217.767,338.493,218.73Z" transform="translate(-312.402 -188.408)"/><path class="b" d="M351.656,185.368s-1.157-2.616-3.159-.761-1.444,5.638-1.7,6.069-.485-2.476-1.955-2.366-.8,3.816-.616,5.2-1.932,2.781-3.418,3.584-7.328-.549-8.008-1.226-2.973-10.545-.306-17.312,9.672-7.154,13.879-4.266c3.713,2.547,3.816-.894,6.769,2.005C355.7,178.81,353.721,183.88,351.656,185.368Z" transform="translate(-313.516 -172.589)"/><path class="b" d="M363.955,188.139a.141.141,0,0,0,.1.266c.012,0,3.881-1.384,3.525-6.432a.141.141,0,1,0-.282.02C367.636,186.828,363.966,188.136,363.955,188.139Z" transform="translate(-325.865 -176.091)"/><path class="b" d="M350.2,174.979a.141.141,0,1,0-.2.2c.008.008,2.841,2.985,7.31.61a.141.141,0,0,0-.133-.249C352.9,177.81,350.209,174.987,350.2,174.979Z" transform="translate(-320.604 -173.477)"/><path class="l" d="M357.732,188.85s.2,4.464.161,5.285-.731,1.385-.915,2.52.081,3.506.027,4.1-1.393.265-1.744.585c-.039.036-2.886,3.678-2.918,3.757-1.032,2.5-3.509.533-4.849-.224l3.918-4.7,3.452-13.572C356.272,187.112,357.4,187.84,357.732,188.85Z" transform="translate(-319.671 -177.893)"/></g><g transform="translate(421.86 180.061)"><path class="o" d="M641.936,340.716c10-5.312,12.533,6.247,8.646,15.819s-23.827,41.767-24.869,54.536c-.4,4.949-1.326,4.409-2.116.939C619.657,394.7,628.175,348.029,641.936,340.716Z" transform="translate(-585.211 -293.357)"/><g transform="translate(18.584)"><path class="p" d="M609.3,268.839c-11.462-10.319-18.629,4.126-16.647,18.061s17.724,63.072,14.89,80.294c-1.1,6.677.3,6.267,2.488,1.94C620.948,347.549,625.08,283.045,609.3,268.839Z" transform="translate(-592.326 -265.338)"/><path class="q" d="M612.517,375.647c.245.64.79.322,1.52-.743,11.946-39.792-6.664-99.246-6.723-99.436a.621.621,0,1,0-1.186.366C606.187,276.024,625.051,336.29,612.517,375.647Z" transform="translate(-597.539 -269.006)"/></g><g transform="translate(0 35.493)"><path class="r" d="M572.952,323.511c-11.107-4.835-12.849,7.709-7.905,17.6s28.9,42.569,31.075,56.1c.844,5.246,1.783,4.592,2.336.825C601.218,379.243,588.24,330.166,572.952,323.511Z" transform="translate(-562.427 -322.441)"/><path class="s" d="M600.188,403.8c.342.416.668.043.947-.932-1.006-32.614-29.664-72.269-29.756-72.4a.488.488,0,0,0-.792.568C570.679,331.166,599.729,371.362,600.188,403.8Z" transform="translate(-565.481 -325.402)"/></g><g transform="translate(18.826 100.143)"><path class="b" d="M601.128,436.95h21.337l5.571,5.028-4.551,17.53H600.108l-4.551-17.53Z" transform="translate(-593.791 -430.426)"/><rect class="e" width="36.011" height="11.551" rx="2.842"/><path class="t" d="M628.036,445.039l-.935,3.6H596.493l-.935-3.6Z" transform="translate(-593.791 -433.487)"/></g></g></g></svg>