<svg xmlns="http://www.w3.org/2000/svg" width="279.222" height="279.222" viewBox="0 0 279.222 279.222"><defs><style>.a,.f{fill:#fcbe1b;}.a{opacity:0.15;}.b,.g{fill:none;}.b{stroke:#342f2e;stroke-linecap:round;stroke-linejoin:round;stroke-width:0.489px;}.c{fill:#342f2e;}.d{fill:#f9ca62;}.e{fill:#fff;}.g,.h{stroke:#969a9e;stroke-width:0.3px;}.h{fill:#b0b5b9;}.i{fill:#5e5d5c;}</style></defs><g transform="translate(-62 -300)"><g transform="translate(-1696 -2915.151)"><circle class="a" cx="98.72" cy="98.72" r="98.72" transform="translate(1758 3354.762) rotate(-45)"/><line class="b" x2="168.423" transform="translate(1806.797 3470.435)"/><g transform="translate(1782.094 3265.312)"><path class="c" d="M203.072,249.848l-27.631.042a2.352,2.352,0,0,1-2.356-2.349h0a2.351,2.351,0,0,1,2.349-2.355l27.632-.042a2.352,2.352,0,0,1,2.355,2.349h0A2.351,2.351,0,0,1,203.072,249.848Z" transform="translate(13.706 -154.734)"/><path class="d" d="M65.221,309.337l-21.968.041A2.352,2.352,0,0,1,40.9,307.03h0a2.354,2.354,0,0,1,2.349-2.356l21.968-.042a2.353,2.353,0,0,1,2.356,2.349h0A2.354,2.354,0,0,1,65.221,309.337Z" transform="translate(-29.556 -135.265)"/><rect class="d" width="6.581" height="6.374" rx="1.209" transform="translate(205.523 0.009) rotate(-0.079)"/><rect class="c" width="6.581" height="6.374" rx="1.209" transform="translate(0 35.643) rotate(-0.079)"/></g></g><g transform="translate(-1759.757 802)"><path class="c" d="M478.091,320.679,396.52,320.3a17.768,17.768,0,0,1-17.686-17.843l.864-204.5a17.77,17.77,0,0,1,17.851-17.694l81.571.377a17.769,17.769,0,0,1,17.686,17.844l-.865,204.5A17.768,17.768,0,0,1,478.091,320.679Z" transform="translate(1523.924 -563.237)"/><path class="e" d="M481.616,92.168,465.8,92.1a3.928,3.928,0,0,0-3.857,4l-.013,2.868a3.928,3.928,0,0,1-3.857,4l-30.828-.142a3.933,3.933,0,0,1-3.823-4.033l.012-2.868a3.934,3.934,0,0,0-3.824-4.033l-5.562-.025-13.842-.064a12.445,12.445,0,0,0-12.5,12.392l-.844,199.607a12.445,12.445,0,0,0,12.387,12.5l81.408.375a12.444,12.444,0,0,0,12.5-12.391L494,104.664A12.444,12.444,0,0,0,481.616,92.168Z" transform="translate(1520.885 -567.6)"/><path class="f" d="M426.992,227.411l31.054.029,20.935.043,5.692.025,1.48.014c.333,0,.5.014.5.014s-.171.009-.5.014l-1.48.013-5.692.026-20.935.043-31.054.029-8.977,0-4.636,0a10.016,10.016,0,0,1-1.2-.036,3.168,3.168,0,0,1-1.146-.377,2.094,2.094,0,0,1-1.161-1.668q0-3.708-.009-7.541,0-1.914,0-3.854a7.549,7.549,0,0,1,.03-.99,1.908,1.908,0,0,1,.489-.957,3.136,3.136,0,0,1,2.3-.923l69.074.04,3.235,0,1.556,0a3.442,3.442,0,0,1,1.505.3,2.08,2.08,0,0,1,1.351,1.962q0,1.093-.007,2.116c-.012,2.725-.022,5.073-.03,7-.006.959-.011,1.811-.016,2.551a1.921,1.921,0,0,1-.864,1.708,2.967,2.967,0,0,1-1.321.511,2.4,2.4,0,0,1-.5.024c0-.011.173,0,.5-.052" transform="translate(1512.182 -612.836)"/><path class="g" d="M486.658,267.893c0-.011.173,0,.5-.052a2.954,2.954,0,0,0,1.279-.523,1.856,1.856,0,0,0,.808-1.668c0-.74-.01-1.592-.016-2.552-.009-1.922-.019-4.271-.03-7q0-1.023-.007-2.116a1.92,1.92,0,0,0-1.256-1.813,7.614,7.614,0,0,0-2.948-.267l-3.235.005-69.074.04a2.745,2.745,0,0,0-2.013.809,1.665,1.665,0,0,0-.428.837,7.454,7.454,0,0,0-.027.952q0,1.94,0,3.854,0,3.824,0,7.529a1.837,1.837,0,0,0,1.019,1.466,2.776,2.776,0,0,0,1.006.333,9.745,9.745,0,0,0,1.141.032l4.636,0,8.977,0,31.054.029,20.935.043,5.692.025,1.48.014c.333,0,.5.014.5.014s-.171.009-.5.014l-1.48.014-5.692.025-20.935.043-31.054.029-8.977.005H413.38a9.9,9.9,0,0,1-1.2-.035,3.169,3.169,0,0,1-1.146-.377,2.094,2.094,0,0,1-1.161-1.668q0-3.709-.009-7.541,0-1.913,0-3.854a7.548,7.548,0,0,1,.03-.99,1.905,1.905,0,0,1,.489-.957,3.136,3.136,0,0,1,2.3-.923l69.074.04,3.235.005,1.556,0a3.442,3.442,0,0,1,1.505.3,2.08,2.08,0,0,1,1.351,1.962q0,1.093-.007,2.116c-.012,2.725-.022,5.073-.03,7-.006.959-.011,1.811-.016,2.552a1.921,1.921,0,0,1-.864,1.708,2.967,2.967,0,0,1-1.321.511A2.393,2.393,0,0,1,486.658,267.893Z" transform="translate(1512.182 -628.108)"/><path class="h" d="M486.658,308.25c0-.011.173,0,.5-.052a2.961,2.961,0,0,0,1.279-.523,1.856,1.856,0,0,0,.808-1.668c0-.74-.01-1.592-.016-2.552-.009-1.922-.019-4.271-.03-7q0-1.023-.007-2.116a1.921,1.921,0,0,0-1.256-1.814,7.627,7.627,0,0,0-2.948-.267l-3.235,0-69.074.04a2.747,2.747,0,0,0-2.013.808,1.67,1.67,0,0,0-.428.838,7.455,7.455,0,0,0-.027.952q0,1.94,0,3.854,0,3.824,0,7.529a1.838,1.838,0,0,0,1.019,1.466,2.776,2.776,0,0,0,1.006.333,9.611,9.611,0,0,0,1.141.032l4.636,0,8.977,0,31.054.029,20.935.043,5.692.026,1.48.014c.333,0,.5.014.5.014s-.171.009-.5.014l-1.48.014-5.692.026-20.935.043-31.054.029-8.977,0-4.636,0a9.886,9.886,0,0,1-1.2-.035,3.181,3.181,0,0,1-1.146-.377,2.094,2.094,0,0,1-1.161-1.668q0-3.708-.009-7.541,0-1.913,0-3.854a7.549,7.549,0,0,1,.03-.99,1.905,1.905,0,0,1,.489-.957,3.135,3.135,0,0,1,2.3-.923l69.074.04,3.235,0,1.556,0a3.432,3.432,0,0,1,1.505.3,2.08,2.08,0,0,1,1.351,1.962q0,1.093-.007,2.116c-.012,2.725-.022,5.073-.03,7-.006.959-.011,1.811-.016,2.552a1.921,1.921,0,0,1-.864,1.708,2.967,2.967,0,0,1-1.321.511A2.393,2.393,0,0,1,486.658,308.25Z" transform="translate(1512.182 -643.381)"/><path class="h" d="M486.658,348.607c0-.011.173,0,.5-.052a2.961,2.961,0,0,0,1.279-.523,1.856,1.856,0,0,0,.808-1.668c0-.74-.01-1.592-.016-2.552-.009-1.922-.019-4.271-.03-7q0-1.023-.007-2.115a1.921,1.921,0,0,0-1.256-1.814,7.625,7.625,0,0,0-2.948-.267l-3.235,0-69.074.04a2.747,2.747,0,0,0-2.013.808,1.668,1.668,0,0,0-.428.837,7.465,7.465,0,0,0-.027.952q0,1.94,0,3.854,0,3.824,0,7.529a1.838,1.838,0,0,0,1.019,1.466,2.775,2.775,0,0,0,1.006.333,9.742,9.742,0,0,0,1.141.032l4.636,0,8.977.005,31.054.029,20.935.043,5.692.025,1.48.013c.333,0,.5.014.5.014s-.171.009-.5.014l-1.48.014-5.692.025-20.935.043-31.054.029-8.977,0-4.636,0a9.9,9.9,0,0,1-1.2-.035,3.181,3.181,0,0,1-1.146-.377,2.094,2.094,0,0,1-1.161-1.668q0-3.708-.009-7.541,0-1.913,0-3.854a7.549,7.549,0,0,1,.03-.99,1.905,1.905,0,0,1,.489-.957,3.136,3.136,0,0,1,2.3-.923l69.074.04,3.235,0,1.556,0a3.442,3.442,0,0,1,1.505.3A2.079,2.079,0,0,1,489.4,334.7q0,1.092-.007,2.115c-.012,2.726-.022,5.074-.03,7-.006.959-.011,1.811-.016,2.552a1.921,1.921,0,0,1-.864,1.708,2.967,2.967,0,0,1-1.321.511A2.453,2.453,0,0,1,486.658,348.607Z" transform="translate(1512.182 -658.654)"/><rect class="i" width="29.992" height="2.249" transform="translate(1945.639 -268.997)"/><rect class="i" width="52.549" height="2.249" transform="translate(1922.042 -419.6)"/><rect class="i" width="76.154" height="2.249" transform="translate(1922.042 -426.111)"/><rect class="i" width="76.154" height="2.249" transform="translate(1922.042 -433.243)"/></g></g></svg>