<svg xmlns="http://www.w3.org/2000/svg" width="279.222" height="279.222" viewBox="0 0 279.222 279.222"><defs><style>.a{fill:#fcbe1b;opacity:0.15;}.b{fill:#342f2e;}.c,.h{fill:none;stroke-linecap:round;stroke-linejoin:round;stroke-width:0.489px;}.c{stroke:#1d0300;}.d{fill:#f9ca62;}.e{fill:#fff;}.f{fill:#f8b2a0;}.g{fill:#e18374;}.h{stroke:#342f2e;}.i{fill:#282524;}.j{fill:#ffb0a9;}</style></defs><g transform="translate(-2026.623 -3215.151)"><circle class="a" cx="98.72" cy="98.72" r="98.72" transform="translate(2026.623 3354.762) rotate(-45)"/><path class="b" d="M360.154,251.476c-7.426,6.594-20.63.741-27.575.51-12.435-.413-8.5-.234-19.381,1.655s-6.822-34.537-7.56-47.992c-.464-8.437-3.809-19.056-3.809-23.324v-.058c-.057-.707-.089-1.415-.094-2.113-.084-10.241,6.23-28.946,28.437-25.972,0,0,18.428,2.1,20.525,20.109,0,0,.873,8.307,1.455,14.324,1.645,17.034,7.927,8.155,5.914,28.915C357.4,224.4,368.838,243.765,360.154,251.476Z" transform="translate(1837.902 3080.705)"/><g transform="translate(2128.577 3366.383)"><g transform="translate(0 0)"><path class="b" d="M331.436,300.753l9.441,56.452H373.33c-.012-.214-.025-.427-.034-.633-.564-12.782-1.923-71.561-21.239-99.048l-.408-4.348H309.783l-.065,4.335c-4.87,7.39-14.992,29.747-16.209,60.8,0,0-.735,11.087,1.631,38.9h31.122Z" transform="translate(-293.402 -253.176)"/></g><line class="c" x2="42.339" transform="translate(16.316 12.117)"/><line class="c" y1="3.923" x2="19.907" transform="translate(29.461 46.346)"/></g><path class="d" d="M341.029,206.619s24.495-1.524,28.5,19.174c2.548,13.173,13.3,38.2,11.733,55.023-.989,10.618-14.342,17.414-25.772,12.815-2.993-1.205-5.4-3.057-6.181-5.889C346.715,278.3,341.029,206.619,341.029,206.619Z" transform="translate(1850.763 3097.962)"/><path class="e" d="M321.683,204.8l-19.733,1.911c-2.944.791-5.145,5.642-4.778,8.789l11.391,60.411h41.866L363.074,216.6c.366-3.162-1.714-8.464-4.675-9.24L338.6,204.477Z" transform="translate(1836.396 3097.269)"/><path class="d" d="M314.484,205.779s-24.495-1.524-28.5,19.175c-2.548,13.172-13.3,38.2-11.733,55.022.989,10.618,14.342,17.414,25.772,12.815,2.994-1.205,5.4-3.057,6.181-5.889C308.8,277.462,314.484,205.779,314.484,205.779Z" transform="translate(1828.858 3097.687)"/><g transform="translate(2116.873 3302.634)"><g transform="translate(0)"><path class="d" d="M319.565,205.146s5.134,49.827,2.567,97.836l-25.424,2.787s1-26.449.669-34.824c-1.054-26.346-12.794-51.9-12.794-51.9s6.425-11.419,17.333-12.6Z" transform="translate(-284.583 -205.146)"/></g><line class="c" y1="18.534" x2="1.519" transform="translate(13.598 28.074)"/></g><g transform="translate(2177.134 3302.639)"><path class="d" d="M335.544,205.15s-5.816,74.534-5.549,98.778l27.8,1.131s-1.767-58.932.875-89.145c.3-3.459-2-7.285-5.394-8.022C349.082,206.98,342.926,206.411,335.544,205.15Z" transform="translate(-329.985 -205.15)"/><line class="c" x1="1.519" y1="18.534" transform="translate(25.564 28.069)"/></g><rect class="b" width="23.133" height="40.737" rx="2.561" transform="translate(2156.559 3307.126)"/><path class="f" d="M331.526,190.644a41.343,41.343,0,0,0-5.515.676c-3.212.6-5.833-1.09-6.48,1.084-.012.044-2.621-2.174-2.621-2.174l-1.982,19.437s9.809,5.2,19.087-.269Z" transform="translate(1842.221 3092.606)"/><path class="g" d="M316.35,194.773l16.242,9.665-1.706-15.611Z" transform="translate(1842.686 3092.147)"/><g transform="translate(2144.1 3234.912)"><path class="b" d="M350.966,176.3c0,13.194-10.268,23.891-22.934,23.891S305.1,189.489,305.1,176.3s10.268-22.172,22.935-22.172S350.966,163.1,350.966,176.3Z" transform="translate(-305.097 -154.123)"/></g><path class="f" d="M345,175.755a81.72,81.72,0,0,1-2.171,18.58c-1.062,4.5-4.049,7.645-8.273,10.178l-.768.461a14.826,14.826,0,0,1-14.778.159h0c-4.575-2.6-7.778-6.035-8.764-10.865a119.389,119.389,0,0,1-1.99-18.513s-1.706-18.948,18.111-18.579S345,175.755,345,175.755Z" transform="translate(1840.025 3081.787)"/><g transform="translate(2141.805 3265.638)"><path class="f" d="M312.006,188.061c-3.342,3.231-11.01-5.322-7.919-9.112,2.848-3.492,6.23-.447,6.23-.447l.685,3.562,1.021,4.794.264,1.075Z" transform="translate(-303.368 -177.272)"/></g><g transform="translate(2182.563 3265.06)"><path class="f" d="M334.359,187.969c3.542,2.79,11.068-6.894,7.632-9.878a4.108,4.108,0,0,0-6.116.293l-.621,3.572-.933,4.811-.244,1.079Z" transform="translate(-334.076 -176.837)"/></g><path class="b" d="M305.684,177.631l4.217,5.337-.85-13.007Z" transform="translate(1839.195 3085.972)"/><path class="b" d="M339.076,177.631l-3.815,5.212.874-12.882Z" transform="translate(1848.875 3085.972)"/><path class="b" d="M309.875,161.384s-1.187,17.163,36.688,14.665c0,0,3.219-13.222-12.052-18.474S309.875,161.384,309.875,161.384Z" transform="translate(1840.566 3081.383)"/><path class="b" d="M305.7,178.551s9.194-4,10.383-19.19C316.088,159.361,306.773,162.077,305.7,178.551Z" transform="translate(1839.202 3082.504)"/><path class="c" d="M309.558,182.65s-.466-2.534-3.97-2.463" transform="translate(1839.164 3089.319)"/><path class="c" d="M335.388,182.65s.466-2.534,3.97-2.463" transform="translate(1848.917 3089.319)"/><line class="h" x2="129.635" transform="translate(2102.543 3470.435)"/><g transform="translate(2054.323 3265.312)"><path class="b" d="M408.177,249.848l-27.632.042a2.353,2.353,0,0,1-2.356-2.349h0a2.353,2.353,0,0,1,2.349-2.355l27.632-.042a2.352,2.352,0,0,1,2.356,2.349h0A2.352,2.352,0,0,1,408.177,249.848Z" transform="translate(-191.399 -154.734)"/><path class="d" d="M270.324,309.337l-21.966.041A2.352,2.352,0,0,1,246,307.03h0a2.353,2.353,0,0,1,2.349-2.356l21.966-.042a2.352,2.352,0,0,1,2.356,2.349h0A2.352,2.352,0,0,1,270.324,309.337Z" transform="translate(-234.66 -135.265)"/><rect class="d" width="6.581" height="6.374" rx="1.209" transform="translate(205.523 0.009) rotate(-0.079)"/><rect class="b" width="6.581" height="6.374" rx="1.209" transform="translate(0 35.643) rotate(-0.079)"/></g><rect class="i" width="23.133" height="40.737" rx="2.561" transform="translate(2156.559 3308.624)"/><g transform="translate(2112.901 3319.741)"><g transform="translate(31.851)"><path class="j" d="M317.117,224.738l-.023-.341c-.162-2.489-3.073-3.166-4.773-1.343-2.154,2.309-4.8,6.423-6.733,15.339l6.323,6.53s17.459-5.52,21.488-12.938a1.614,1.614,0,0,0-.1-1.711c-.633-.717-1.137-.653-1.137-.653a2.439,2.439,0,0,0,.688-2.55s-.313-.987-1.1-1.12c0,0,.567-2.754-1.771-2.883l.057-.08a2.071,2.071,0,0,0-.17-2.594h0a2.065,2.065,0,0,0-2.729-.28C324.9,221.724,319.881,224.609,317.117,224.738Z" transform="translate(-305.588 -217.482)"/><path class="j" d="M316.057,226.056a21.255,21.255,0,0,0,.085-5.431c-.281-1.972-1.951-3.077-3.5-2.38h0c-1.314.591-1.771,2.125-1.483,3.787.4,2.3-.527,4.392-1.388,7.684-1.68,6.417-.162,10.423-.162,10.423Z" transform="translate(-304.478 -218.035)"/></g><g transform="translate(0 12.842)"><path class="d" d="M315.471,227.711l-33.88,34.374,17.392,24.153,35.731-43.984Z" transform="translate(-281.591 -227.711)"/><line class="c" x1="27.824" y2="28.418" transform="translate(6.056)"/><line class="c" x1="25.142" y2="29.162" transform="translate(16.71 28.418)"/></g></g><g transform="translate(2162.824 3324.017)"><g transform="translate(0)"><path class="j" d="M335.853,225.849l.153-4.409s6.6-1.664,11.43,17.777l-5.583,7.264s-18.157-5.524-22.412-12.816a1.613,1.613,0,0,1,.048-1.714c.611-.734,1.116-.686,1.116-.686a2.44,2.44,0,0,1-.766-2.528s.283-1,1.063-1.153c0,0-.652-2.734,1.68-2.935l-.058-.078a2.07,2.07,0,0,1,.09-2.6h0a2.064,2.064,0,0,1,2.718-.364C327.621,223.15,333.084,225.806,335.853,225.849Z" transform="translate(-319.204 -221.257)"/></g></g><g transform="translate(2168.519 3332.005)"><path class="d" d="M342.692,227.275l32.71,34.378-15.018,23.968L323.494,242.6Z" transform="translate(-323.494 -227.275)"/><line class="c" x2="26.117" y2="28.026" transform="translate(19.198 0)"/><line class="c" x2="25.51" y2="31.174" transform="translate(10.64 27.681)"/></g></g></svg>