<svg xmlns="http://www.w3.org/2000/svg" width="279.222" height="279.222" viewBox="0 0 279.222 279.222"><defs><style>.a{fill:#fcbe1b;opacity:0.15;}.b{fill:#ffb0a9;}.c{fill:#342f2e;}.d{fill:#fff;}.e{fill:#f9ca62;}.f{fill:none;stroke:#342f2e;stroke-linecap:round;stroke-linejoin:round;stroke-width:0.489px;}.g{fill:red;}.g,.h,.i{opacity:0.8;isolation:isolate;}.h{fill:#03ad3d;}.i{fill:#70ff00;}</style></defs><g transform="translate(-2290.09 -3223.259)"><circle class="a" cx="98.72" cy="98.72" r="98.72" transform="translate(2290.09 3362.871) rotate(-45)"/><path class="b" d="M508.517,173.816l-6.412-8.16a7.122,7.122,0,0,0-9.92-1.261h0a7.123,7.123,0,0,0-2.008,8.93l8.844,17.121Z" transform="translate(1899.315 3083.673)"/><path class="b" d="M553.208,255.04l27.081,78.074-55.833,21.572-21.547-63.542Z" transform="translate(1903.742 3113.817)"/><path class="c" d="M527.974,333.973,474.9,314.356a14.5,14.5,0,0,1-8.573-18.624l48.245-130.318a14.5,14.5,0,0,1,18.626-8.573l53.075,19.616a14.5,14.5,0,0,1,8.573,18.626L546.6,325.4A14.5,14.5,0,0,1,527.974,333.973Z" transform="translate(1891.474 3081.383)"/><rect class="d" width="73.026" height="111.21" transform="matrix(0.938, 0.347, -0.347, 0.938, 2408.017, 3259.461)"/><path class="d" d="M524.872,169.166a.875.875,0,0,0-.6,1.645l24.233,8.956a.915.915,0,0,0,.67-.025.876.876,0,0,0-.062-1.617l-24.235-8.956Z" transform="translate(1910.546 3085.695)"/><path class="d" d="M500.077,267.2l-.143-.049a6.692,6.692,0,0,0-8.467,4.233,6.693,6.693,0,1,0,12.7,4.231h0a6.693,6.693,0,0,0-4.089-8.415Z" transform="translate(1899.885 3117.666)"/><path class="b" d="M551.993,297.372l11.6-23.215a69.371,69.371,0,0,0,6.279-19.058l7.12-54.337a2.09,2.09,0,0,0-2.175-2.444c-5.142.255-16.766,5.532-17.789,26.369l-6.982,18.94s-29.3,27.964-13.609,59.912Z" transform="translate(1913.201 3095.252)"/><path class="b" d="M501.173,193.636l-6.618-3.921s-3.272-1.675-6.918,3.434,1.351,12.239,1.351,12.239l.753-2.105,3,2.26a7.3,7.3,0,0,0,9.818-.938h0A7.3,7.3,0,0,0,501.173,193.636Z" transform="translate(1898.308 3092.352)"/><path class="b" d="M497.654,213.51,488,207.232s-3.272-1.675-6.916,3.434,1.35,12.239,1.35,12.239l.754-2.105,6.027,4.618a7.3,7.3,0,0,0,9.819-.938h0A7.3,7.3,0,0,0,497.654,213.51Z" transform="translate(1896.164 3098.084)"/><path class="b" d="M488.492,228.136l-10.367-3.711s-3.979-.845-5.413,4.777c0,0-1.769,3.649,4.018,10.118l1.175-3.284,6.879,2.462a5.5,5.5,0,0,0,7.09-3.489h0A5.5,5.5,0,0,0,488.492,228.136Z" transform="translate(1893.776 3103.782)"/><path class="e" d="M595.2,345.226l-18.581-52.849a5.3,5.3,0,0,0-6.662-3.284l-61.891,20.368a5.3,5.3,0,0,0-3.383,6.682l9.012,29.083Z" transform="translate(1904.237 3124.874)"/><line class="f" x2="168.423" transform="translate(2347.48 3470.435)"/><g transform="translate(2320.136 3265.312)"><path class="c" d="M608.447,249.848l-27.632.042a2.353,2.353,0,0,1-2.356-2.349h0a2.352,2.352,0,0,1,2.349-2.355l27.632-.042a2.353,2.353,0,0,1,2.356,2.349h0A2.352,2.352,0,0,1,608.447,249.848Z" transform="translate(-391.669 -154.734)"/><path class="e" d="M470.594,309.337l-21.966.041a2.351,2.351,0,0,1-2.356-2.348h0a2.353,2.353,0,0,1,2.349-2.356l21.966-.042a2.352,2.352,0,0,1,2.356,2.349h0A2.353,2.353,0,0,1,470.594,309.337Z" transform="translate(-434.93 -135.265)"/><rect class="e" width="6.581" height="6.374" rx="1.209" transform="translate(205.523 0.009) rotate(-0.079)"/><rect class="c" width="6.581" height="6.374" rx="1.209" transform="translate(0 35.643) rotate(-0.079)"/></g><circle class="g" cx="7.229" cy="7.229" r="7.229" transform="translate(2410.782 3270.706)"/><ellipse class="h" cx="7.324" cy="7.229" rx="7.324" ry="7.229" transform="translate(2401.142 3301.835) rotate(-69.092)"/><circle class="i" cx="7.229" cy="7.229" r="7.229" transform="translate(2380.774 3349.257)"/><circle class="h" cx="7.229" cy="7.229" r="7.229" transform="translate(2388.31 3329.531)"/><ellipse class="i" cx="7.229" cy="7.324" rx="7.229" ry="7.324" transform="translate(2428.227 3289.577) rotate(-69.092)"/><circle class="g" cx="7.324" cy="7.324" r="7.324" transform="translate(2422.823 3297.751)"/><ellipse class="h" cx="7.229" cy="7.324" rx="7.229" ry="7.324" transform="translate(2398.219 3368.128) rotate(-69.092)"/><ellipse class="g" cx="7.229" cy="7.324" rx="7.229" ry="7.324" transform="translate(2405.755 3348.401) rotate(-69.092)"/><circle class="h" cx="7.229" cy="7.229" r="7.229" transform="translate(2449.88 3285.642)"/><ellipse class="i" cx="7.324" cy="7.229" rx="7.324" ry="7.229" transform="translate(2440.24 3316.771) rotate(-69.092)"/><circle class="h" cx="7.229" cy="7.229" r="7.229" transform="translate(2419.872 3364.193)"/><circle class="i" cx="7.229" cy="7.229" r="7.229" transform="translate(2427.585 3344.534)"/><circle class="i" cx="7.229" cy="7.229" r="7.229" transform="translate(2395.778 3309.982)"/><ellipse class="g" cx="7.229" cy="7.324" rx="7.229" ry="7.324" transform="translate(2413.223 3328.852) rotate(-69.092)"/><circle class="g" cx="7.229" cy="7.229" r="7.229" transform="translate(2434.876 3324.917)"/></g></svg>