<svg xmlns="http://www.w3.org/2000/svg" width="210.151" height="202.153" viewBox="0 0 210.151 202.153"><defs><style>.a,.c{fill:#03ad3d;}.a,.b{opacity:0.1;}</style></defs><g transform="translate(-96.849 -336.861)"><circle class="a" cx="71.993" cy="71.993" r="71.993" transform="translate(126 364)"/><g class="b" transform="translate(96.849 336.861)"><path class="c" d="M214.242,219.923A101.077,101.077,0,1,1,315.314,118.851,101.191,101.191,0,0,1,214.242,219.923Zm0-200.813a99.741,99.741,0,1,0,99.741,99.741A99.852,99.852,0,0,0,214.242,19.11Z" transform="translate(-113.161 -17.77)"/></g><circle class="c" cx="10.5" cy="10.5" r="10.5" transform="translate(286 421)"/><circle class="c" cx="8.5" cy="8.5" r="8.5" transform="translate(122 455)"/><circle class="c" cx="6.5" cy="6.5" r="6.5" transform="translate(99 392)"/><circle class="c" cx="6.5" cy="6.5" r="6.5" transform="translate(245 517)"/><circle class="c" cx="4.5" cy="4.5" r="4.5" transform="translate(237 343)"/><g transform="translate(142 394.62)"><g transform="translate(68.007)"><g transform="translate(0)"><path class="c" d="M337.355,0A1.355,1.355,0,0,0,336,1.355V7.588a1.355,1.355,0,0,0,2.71,0V1.355A1.355,1.355,0,0,0,337.355,0Z" transform="translate(-336)"/></g></g><g transform="translate(26 14.364)"><g transform="translate(0)"><path class="c" d="M88.333,131.2a5.426,5.426,0,0,0-5.42-5.42H72.8a34.03,34.03,0,0,0,2.078-12.936,15.432,15.432,0,0,0-.1-1.558,5.419,5.419,0,0,0-10.837.13v1.355c0,8.57-11.005,13.386-19.31,15.45a4.071,4.071,0,0,0-3.726-2.442H27.355A1.355,1.355,0,0,0,26,127.139v32.522a1.355,1.355,0,0,0,1.355,1.355H40.906a4.07,4.07,0,0,0,3.713-2.413q1.032.265,1.915.5a43.951,43.951,0,0,0,13.676,1.916H74.783a5.417,5.417,0,0,0,4.5-8.434,5.436,5.436,0,0,0,2.72-8.134,5.419,5.419,0,0,0,2.7-8.127A5.422,5.422,0,0,0,88.333,131.2ZM42.261,156.951a1.357,1.357,0,0,1-1.355,1.355H28.71V128.494h12.2a1.357,1.357,0,0,1,1.355,1.355Zm40.652-23.036H76.138a1.355,1.355,0,0,0,0,2.71H80.2a2.71,2.71,0,1,1,0,5.42H73.427a1.355,1.355,0,0,0,0,2.71h4.065a2.71,2.71,0,1,1,0,5.42H70.717a1.355,1.355,0,1,0,0,2.71h4.065a2.71,2.71,0,0,1,0,5.42H60.21a41.34,41.34,0,0,1-12.991-1.828q-1.024-.267-2.248-.582V130.937c9.806-2.336,21.681-8.037,21.681-18.161V111.42a2.71,2.71,0,0,1,5.42,0v0c0,.589.735,7.816-2.212,14.364H65.3a1.355,1.355,0,1,0,0,2.71H82.913a2.71,2.71,0,1,1,0,5.42Z" transform="translate(-26 -106)"/></g></g><g transform="translate(51.746 17.074)"><g transform="translate(0)"><path class="c" d="M222.775,126h-5.42a1.355,1.355,0,0,0,0,2.71h5.42a1.355,1.355,0,0,0,0-2.71Z" transform="translate(-216 -126)"/></g></g><g transform="translate(78.848 17.074)"><g transform="translate(0)"><path class="c" d="M422.775,126h-5.42a1.355,1.355,0,1,0,0,2.71h5.42a1.355,1.355,0,1,0,0-2.71Z" transform="translate(-416 -126)"/></g></g><g transform="translate(75.673 5.576)"><g transform="translate(0)"><path class="c" d="M398.716,41.548a1.355,1.355,0,0,0-1.916,0l-3.832,3.832a1.355,1.355,0,0,0,1.917,1.916l3.832-3.832A1.355,1.355,0,0,0,398.716,41.548Z" transform="translate(-392.57 -41.151)"/></g></g><g transform="translate(56.509 5.576)"><g transform="translate(0)"><path class="c" d="M257.3,45.38l-3.832-3.832a1.355,1.355,0,0,0-1.916,1.916l3.832,3.832A1.355,1.355,0,0,0,257.3,45.38Z" transform="translate(-251.15 -41.151)"/></g></g></g></g></svg>