<svg width="311" height="279" viewBox="0 0 311 279" fill="none" xmlns="http://www.w3.org/2000/svg">
<path fill-rule="evenodd" clip-rule="evenodd" d="M83.3979 117.364C91.8478 118.634 106.523 120.394 108.342 119.762C110.809 118.902 124.714 104.475 125.918 100.737C125.918 100.737 126.033 100.323 125.54 100.247C125.047 100.172 123.316 100.387 122.778 99.7516C122.239 99.1158 121.85 99.6284 121.471 100.436C121.092 101.243 109.988 110.632 107.101 112.5C104.214 114.368 87.1967 106.525 84.9626 105.848C74.6156 102.695 70.8952 115.485 83.3979 117.364Z" fill="#F18A00"/>
<path fill-rule="evenodd" clip-rule="evenodd" d="M19.2815 253H16.463C15.8642 252.964 15.3035 252.694 14.9028 252.248C14.502 251.801 14.2934 251.215 14.3223 250.616V250.616C14.2932 250.016 14.5016 249.43 14.9024 248.983C15.3032 248.536 15.864 248.266 16.463 248.23H19.2815C19.8803 248.266 20.4409 248.537 20.8414 248.983C21.242 249.43 21.4504 250.016 21.4213 250.616V250.616C21.4501 251.215 21.2417 251.801 20.8411 252.247C20.4405 252.694 19.8802 252.964 19.2815 253V253Z" fill="#342F2E"/>
<path fill-rule="evenodd" clip-rule="evenodd" d="M186.839 138.914L193.407 131.063C198.509 124.963 189.914 121.019 186.839 125.632C183.764 121.019 175.169 124.963 180.271 131.063L186.839 138.914Z" fill="white"/>
<path fill-rule="evenodd" clip-rule="evenodd" d="M27.1368 253H279.526C280.485 253 281.267 251.927 281.267 250.616C281.267 249.304 280.484 248.23 279.526 248.23H27.1368C26.1789 248.23 25.3956 249.303 25.3956 250.616C25.3956 251.926 26.178 253 27.1368 253Z" fill="#342F2E"/>
<path fill-rule="evenodd" clip-rule="evenodd" d="M127.127 179.64C127.56 178.622 128.309 177.771 129.264 177.213C129.699 176.972 130.077 176.641 130.375 176.244C130.673 175.846 130.884 175.39 130.993 174.906C131.262 173.722 131.373 172.508 131.326 171.296C131.326 171.172 131.375 171.053 131.462 170.966C131.55 170.878 131.669 170.829 131.793 170.829H133.174C133.281 170.83 133.387 170.847 133.488 170.879C134.057 171.124 134.52 171.563 134.795 172.118C135.199 172.85 135.409 173.673 135.404 174.509C135.403 175.067 135.317 175.621 135.149 176.153C134.841 176.834 134.743 177.592 134.869 178.329C134.946 178.516 135.164 178.556 135.406 178.556H138.869C139.236 178.553 139.602 178.598 139.957 178.69C140.428 178.804 140.855 179.056 141.183 179.413C141.557 179.859 141.752 180.428 141.729 181.01C141.724 181.37 141.677 181.728 141.588 182.077C141.821 182.644 142.503 184.639 141.178 185.856C141.265 186.371 141.215 186.901 141.032 187.39C140.85 187.88 140.541 188.313 140.138 188.646C139.968 189.321 139.576 189.92 139.025 190.345C138.473 190.771 137.795 190.998 137.098 190.992H130.75C129.499 190.857 128.329 190.308 127.424 189.434V189.62C127.424 189.811 127.386 190 127.313 190.176C127.239 190.353 127.132 190.513 126.997 190.647L126.965 190.675C126.696 190.931 126.339 191.074 125.968 191.074H123.083C122.697 191.073 122.327 190.92 122.053 190.647C121.78 190.374 121.626 190.004 121.626 189.617V180.506C121.626 180.315 121.664 180.126 121.737 179.95C121.811 179.773 121.918 179.613 122.053 179.479L122.085 179.45C122.354 179.194 122.712 179.051 123.083 179.05H125.968C126.159 179.05 126.348 179.088 126.524 179.162C126.7 179.235 126.86 179.343 126.995 179.479C127.045 179.528 127.092 179.582 127.134 179.638L127.127 179.64ZM127.418 188.162C127.843 188.605 129.346 190.059 130.743 190.059H137.092C137.608 190.055 138.108 189.873 138.506 189.543C138.904 189.213 139.175 188.756 139.274 188.249C139.289 188.18 139.318 188.115 139.361 188.059C139.404 188.003 139.46 187.957 139.523 187.926C140.456 187.459 140.256 185.975 140.223 185.762C140.204 185.674 140.211 185.582 140.243 185.498C140.275 185.414 140.331 185.341 140.403 185.287C141.569 184.429 140.796 182.594 140.683 182.341C140.626 182.236 140.611 182.114 140.641 181.998C140.734 181.678 140.783 181.347 140.79 181.013C140.811 180.659 140.7 180.309 140.478 180.031C140.271 179.814 140.005 179.663 139.712 179.596C139.436 179.526 139.151 179.492 138.865 179.494H135.403C135.114 179.532 134.82 179.474 134.567 179.329C134.314 179.184 134.116 178.959 134.002 178.691C133.777 177.751 133.866 176.763 134.256 175.88C134.396 175.437 134.468 174.976 134.47 174.512C134.476 173.837 134.309 173.172 133.984 172.58C133.824 172.233 133.553 171.949 133.213 171.773L133.177 171.765H132.261C132.286 172.908 132.163 174.049 131.895 175.16C131.754 175.766 131.487 176.336 131.11 176.832C130.733 177.328 130.256 177.739 129.71 178.037C127.906 179.008 127.469 181.479 127.421 181.813V188.161L127.418 188.162ZM125.961 179.988H123.077C122.946 179.988 122.821 180.037 122.725 180.124L122.708 180.141C122.659 180.19 122.62 180.247 122.594 180.311C122.568 180.374 122.554 180.442 122.554 180.51V189.622C122.554 189.76 122.61 189.893 122.708 189.991C122.806 190.088 122.938 190.143 123.077 190.144H125.961C126.091 190.144 126.216 190.095 126.312 190.008L126.329 189.99C126.378 189.942 126.417 189.884 126.443 189.821C126.469 189.758 126.483 189.69 126.483 189.621V180.509C126.483 180.371 126.428 180.239 126.33 180.141C126.232 180.043 126.1 179.988 125.961 179.987V179.988Z" fill="white"/>
<g opacity="0.24">
<path opacity="0.24" fill-rule="evenodd" clip-rule="evenodd" d="M76.1569 58.9601C76.1569 58.7856 76.0876 58.6182 75.9641 58.4947C75.8407 58.3713 75.6733 58.3019 75.4987 58.3019C75.3242 58.3019 75.1568 58.3713 75.0333 58.4947C74.9099 58.6182 74.8405 58.7856 74.8405 58.9601V60.508H73.2917C73.117 60.508 72.9495 60.5774 72.826 60.7009C72.7025 60.8245 72.6331 60.992 72.6331 61.1667C72.6331 61.3414 72.7025 61.5089 72.826 61.6324C72.9495 61.7559 73.117 61.8253 73.2917 61.8253H74.8405V63.3742C74.8405 63.5487 74.9099 63.7161 75.0333 63.8396C75.1568 63.963 75.3242 64.0323 75.4987 64.0323C75.6733 64.0323 75.8407 63.963 75.9641 63.8396C76.0876 63.7161 76.1569 63.5487 76.1569 63.3742V61.8253H77.7048C77.8795 61.8253 78.047 61.7559 78.1705 61.6324C78.2941 61.5089 78.3635 61.3414 78.3635 61.1667C78.3635 60.992 78.2941 60.8245 78.1705 60.7009C78.047 60.5774 77.8795 60.508 77.7048 60.508H76.1569V58.9601Z" fill="#342F2E"/>
<path opacity="0.24" fill-rule="evenodd" clip-rule="evenodd" d="M35.2236 199.359C35.8507 198.73 36.6765 198.338 37.5604 198.25C38.4442 198.162 39.3313 198.383 40.0705 198.875C40.8097 199.367 41.3553 200.101 41.6143 200.95C41.8733 201.8 41.8297 202.713 41.4909 203.534C41.1521 204.355 40.539 205.034 39.7562 205.453C38.9734 205.873 38.0693 206.008 37.198 205.836C36.3266 205.664 35.5419 205.195 34.9776 204.509C34.4133 203.823 34.1043 202.963 34.1033 202.074C34.1021 201.57 34.2004 201.071 34.3927 200.605C34.585 200.139 34.8673 199.716 35.2236 199.359ZM36.0526 195.554C35.5269 195.706 35.0216 195.921 34.5477 196.195C34.069 196.472 33.6257 196.806 33.2276 197.19C33.1909 197.225 33.1438 197.247 33.0933 197.254C33.0428 197.26 32.9916 197.25 32.9475 197.224L31.1634 196.197L31.1531 196.192C31.0517 196.137 30.9331 196.125 30.8223 196.156C30.7116 196.187 30.6173 196.26 30.5594 196.36L30.5519 196.371L29.2972 198.544C29.2393 198.646 29.2238 198.767 29.254 198.88C29.2842 198.993 29.3577 199.09 29.4587 199.149L29.4708 199.156L31.2446 200.178C31.2887 200.204 31.3234 200.243 31.3434 200.289C31.3635 200.336 31.3678 200.388 31.3557 200.438V200.438C31.2893 200.705 31.2394 200.976 31.2064 201.249C31.1398 201.798 31.1398 202.353 31.2064 202.902C31.2394 203.176 31.2893 203.447 31.3557 203.714C31.3687 203.766 31.3633 203.821 31.3405 203.87C31.3178 203.919 31.279 203.958 31.2306 203.982L29.4615 205.003C29.3606 205.062 29.2871 205.159 29.2569 205.272C29.2266 205.385 29.2421 205.505 29.2999 205.607L30.5622 207.794C30.6213 207.895 30.7176 207.969 30.8305 207.999C30.9433 208.03 31.0635 208.014 31.1653 207.957L31.1783 207.949L32.9522 206.923C32.9963 206.897 33.0473 206.887 33.0978 206.893C33.1482 206.899 33.1954 206.921 33.2322 206.956C34.0288 207.726 35.0021 208.288 36.0666 208.595C36.1159 208.609 36.1592 208.639 36.19 208.679C36.2208 208.72 36.2375 208.77 36.2375 208.821V210.875C36.238 210.992 36.2847 211.104 36.3674 211.187C36.4501 211.27 36.5621 211.316 36.6791 211.317H39.2044C39.3213 211.316 39.4333 211.27 39.5158 211.187C39.5984 211.104 39.6449 210.992 39.6451 210.875V208.821C39.6453 208.768 39.6634 208.717 39.6964 208.675C39.7294 208.633 39.7755 208.604 39.8271 208.592C40.8881 208.285 41.858 207.724 42.6522 206.956C42.6909 206.919 42.7409 206.896 42.7941 206.892C42.8473 206.887 42.9006 206.9 42.9453 206.929L44.7192 207.956C44.821 208.014 44.9415 208.029 45.0545 207.999C45.1675 207.968 45.2641 207.895 45.3232 207.794L45.3307 207.781L46.5864 205.606C46.6439 205.505 46.6592 205.384 46.629 205.272C46.5988 205.159 46.5255 205.062 46.4249 205.003L44.6426 203.976C44.5985 203.951 44.5637 203.911 44.5437 203.864C44.5237 203.817 44.5194 203.765 44.5315 203.716V203.716C44.598 203.449 44.6479 203.178 44.6809 202.905C44.7475 202.356 44.7475 201.8 44.6809 201.25C44.6478 200.977 44.5979 200.706 44.5315 200.44C44.5188 200.387 44.5242 200.332 44.547 200.284C44.5697 200.235 44.6084 200.195 44.6566 200.172L46.4304 199.15C46.5311 199.091 46.6045 198.994 46.6347 198.881C46.6649 198.768 46.6495 198.648 46.592 198.546L46.5854 198.533L45.3307 196.36C45.3018 196.31 45.2632 196.266 45.2172 196.23C45.1712 196.195 45.1187 196.169 45.0627 196.154C44.9496 196.124 44.8287 196.139 44.7267 196.196L42.9425 197.223C42.8972 197.25 42.8444 197.26 42.7925 197.253C42.7407 197.246 42.6926 197.222 42.6559 197.184C41.8603 196.417 40.8887 195.856 39.8262 195.55C39.7768 195.536 39.7333 195.507 39.7023 195.466C39.6713 195.425 39.6545 195.375 39.6544 195.324V193.27C39.6542 193.153 39.6077 193.041 39.5251 192.958C39.4425 192.876 39.3306 192.829 39.2138 192.829H36.6884C36.5715 192.829 36.4595 192.876 36.3768 192.958C36.294 193.041 36.2473 193.153 36.2468 193.27V195.324C36.2466 195.378 36.2272 195.432 36.1919 195.474C36.1566 195.516 36.1076 195.544 36.0536 195.554H36.0526Z" fill="#342F2E"/>
<path opacity="0.24" fill-rule="evenodd" clip-rule="evenodd" d="M39.7496 111.443C41.3346 109.857 43.4527 108.917 45.6922 108.806C47.9316 108.695 50.1322 109.421 51.8662 110.843C53.6002 112.264 54.7435 114.28 55.0739 116.498C55.4043 118.715 54.8982 120.977 53.6539 122.842C52.4096 124.707 50.5161 126.043 48.3416 126.59C46.1671 127.136 43.867 126.855 41.8886 125.8C39.9101 124.745 38.3947 122.992 37.637 120.881C36.8794 118.771 36.9335 116.455 37.7891 114.382C38.2436 113.283 38.9097 112.285 39.7496 111.443V111.443ZM43.005 110.253C41.1089 111.032 39.5706 112.489 38.6897 114.34C37.8087 116.192 37.6482 118.304 38.2392 120.267C38.8302 122.231 40.1306 123.903 41.8872 124.961C43.6437 126.018 45.7308 126.383 47.7421 125.986C49.7534 125.589 51.545 124.458 52.7681 122.813C53.9913 121.168 54.5585 119.126 54.3593 117.086C54.1601 115.045 53.2088 113.152 51.6906 111.774C50.1723 110.397 48.1958 109.633 46.1457 109.633C45.0683 109.632 44.0011 109.842 43.005 110.253ZM42.0052 103.597C41.4382 103.761 40.8816 103.959 40.3387 104.191C39.7894 104.425 39.2547 104.692 38.7376 104.991C37.6911 105.597 36.7219 106.327 35.8509 107.166C35.7035 107.309 35.5133 107.4 35.3094 107.425C35.1049 107.45 34.8978 107.407 34.7194 107.304C33.3909 106.537 31.9942 105.778 30.6938 104.979C30.633 104.947 30.5669 104.926 30.4986 104.918C30.4244 104.91 30.3494 104.916 30.2774 104.936C30.2037 104.955 30.1345 104.989 30.0738 105.035C30.0144 105.081 29.9646 105.138 29.9273 105.203C28.9591 106.668 27.9873 108.564 27.0901 110.114C27.053 110.178 27.0289 110.249 27.0191 110.323C27.0103 110.399 27.0163 110.477 27.0369 110.551C27.0758 110.699 27.1714 110.825 27.3029 110.902C28.4979 111.691 30.0374 112.481 31.3043 113.213C31.4231 113.281 31.5257 113.374 31.6051 113.485C31.6844 113.596 31.7385 113.724 31.7636 113.858L31.8458 113.885L31.7524 114.259C31.6796 114.553 31.6174 114.846 31.5657 115.138C31.5141 115.431 31.4689 115.728 31.4304 116.03C31.3939 116.332 31.3659 116.633 31.3482 116.929C31.3305 117.225 31.3221 117.523 31.3221 117.839C31.3221 118.156 31.3305 118.458 31.3482 118.747C31.3659 119.037 31.3939 119.346 31.4304 119.648C31.4668 119.951 31.5135 120.256 31.5657 120.54C31.618 120.824 31.6834 121.126 31.7524 121.42C31.8035 121.627 31.783 121.846 31.6944 122.039C31.6058 122.233 31.4541 122.392 31.2642 122.488L27.7165 124.534L27.2973 124.776C27.2325 124.813 27.1757 124.863 27.1302 124.922C27.0842 124.983 27.0506 125.052 27.0313 125.126C27.0107 125.201 27.0047 125.278 27.0135 125.355C27.0232 125.429 27.0473 125.5 27.0845 125.564L29.7079 130.109L29.9198 130.476C29.9572 130.541 30.007 130.597 30.0664 130.642C30.127 130.688 30.1962 130.722 30.2699 130.741C30.344 130.762 30.4214 130.767 30.4977 130.758C30.5712 130.749 30.642 130.725 30.7059 130.687C31.9746 129.89 33.4068 129.129 34.7157 128.373C34.8931 128.271 35.0988 128.229 35.3021 128.253C35.5053 128.277 35.6952 128.367 35.8434 128.508V128.508C36.2788 128.928 36.7393 129.321 37.2224 129.685C37.7038 130.049 38.207 130.382 38.7292 130.683C39.7704 131.285 40.8816 131.757 42.0378 132.089C42.2361 132.145 42.4104 132.265 42.5345 132.43C42.6586 132.595 42.7258 132.795 42.7259 133.002V137.625C42.7256 137.699 42.7402 137.773 42.7688 137.842C42.7983 137.912 42.8411 137.976 42.8949 138.029C42.9476 138.083 43.0105 138.125 43.0799 138.154C43.1494 138.183 43.2239 138.198 43.2991 138.198H48.9735C49.0478 138.198 49.1214 138.183 49.1901 138.155C49.2598 138.126 49.3232 138.083 49.3768 138.03C49.4299 137.976 49.4723 137.913 49.5019 137.843C49.5306 137.774 49.5452 137.7 49.5449 137.626V133.009C49.5457 132.796 49.6181 132.589 49.7505 132.421C49.8828 132.253 50.0674 132.135 50.2749 132.085C50.842 131.921 51.3986 131.723 51.9414 131.491C53.6059 130.78 55.1267 129.772 56.4292 128.516C56.5845 128.367 56.7856 128.276 56.9995 128.256C57.2135 128.237 57.4278 128.29 57.6074 128.408L61.5658 130.694C61.6301 130.731 61.7012 130.755 61.7749 130.764C61.8516 130.773 61.9292 130.767 62.0037 130.747C62.0773 130.728 62.1465 130.694 62.2072 130.648C62.2663 130.603 62.3161 130.546 62.3538 130.482C63.2948 128.841 64.249 127.209 65.191 125.569C65.2279 125.505 65.2517 125.434 65.261 125.36C65.2794 125.207 65.2379 125.052 65.1452 124.929C65.1014 124.869 65.0458 124.819 64.9818 124.782L60.9776 122.47C60.7992 122.368 60.6589 122.211 60.5781 122.023C60.5572 121.973 60.5406 121.922 60.5286 121.87L60.424 121.849L60.5295 121.425C60.6014 121.131 60.6649 120.838 60.7162 120.546C60.7676 120.253 60.8096 119.963 60.8516 119.652C60.8936 119.341 60.916 119.049 60.9338 118.751C60.9515 118.453 60.9608 118.158 60.9608 117.843C60.9608 117.527 60.9524 117.224 60.9338 116.934C60.9151 116.645 60.8889 116.338 60.8516 116.035C60.8143 115.733 60.7676 115.423 60.7162 115.141C60.6649 114.859 60.5995 114.557 60.5295 114.263C60.4773 114.054 60.4983 113.833 60.5893 113.638C60.6788 113.448 60.8284 113.292 61.015 113.195L64.9809 110.906C65.0454 110.869 65.1016 110.819 65.1461 110.76C65.1922 110.699 65.2258 110.629 65.2451 110.555C65.265 110.481 65.2704 110.404 65.261 110.327C65.2517 110.254 65.2279 110.183 65.191 110.118C64.2228 108.678 63.2519 106.757 62.3538 105.207C62.3164 105.142 62.2666 105.084 62.2072 105.039C62.1465 104.993 62.0773 104.959 62.0037 104.94C61.9296 104.919 61.8522 104.913 61.7759 104.922C61.7022 104.932 61.6311 104.956 61.5667 104.993L57.5598 107.306C57.3787 107.412 57.1672 107.454 56.9594 107.425C56.7547 107.397 56.5645 107.304 56.418 107.158C55.1165 105.903 53.5961 104.897 51.9321 104.19C51.3796 103.955 50.813 103.754 50.2357 103.589C50.0374 103.532 49.8629 103.413 49.7388 103.248C49.6146 103.083 49.5475 102.883 49.5477 102.677V98.0525C49.548 97.978 49.5337 97.9041 49.5057 97.835C49.4756 97.7653 49.4325 97.7019 49.3787 97.6483C49.3262 97.5945 49.2635 97.5518 49.1942 97.5228C49.1249 97.4938 49.0505 97.479 48.9754 97.4793H43.301C43.2263 97.479 43.1524 97.4936 43.0835 97.5222C43.0135 97.5511 42.9501 97.5937 42.8967 97.6473C42.7894 97.7546 42.7286 97.8998 42.7278 98.0516V102.676C42.7281 102.889 42.6564 103.096 42.5242 103.263C42.3912 103.431 42.2058 103.549 41.9977 103.599L42.0052 103.597ZM40.011 103.422C38.2533 104.172 36.6473 105.237 35.2721 106.564C35.2548 106.581 35.2325 106.591 35.2086 106.594C35.1848 106.597 35.1606 106.592 35.1395 106.581C33.7927 105.804 32.4455 105.026 31.098 104.247C30.941 104.162 30.7692 104.108 30.592 104.088C30.2263 104.045 29.8583 104.146 29.565 104.368C29.4182 104.481 29.295 104.621 29.2028 104.782C28.2272 106.362 27.2992 108.077 26.3656 109.693C26.2729 109.854 26.2133 110.031 26.1901 110.215C26.1668 110.399 26.1791 110.586 26.2265 110.765C26.2747 110.944 26.3575 111.113 26.4702 111.26C26.5823 111.407 26.7226 111.53 26.8828 111.622C28.1712 112.418 29.5688 113.173 30.887 113.934C30.9074 113.946 30.9235 113.964 30.9327 113.986C30.9421 114.008 30.944 114.033 30.9383 114.056L30.845 114.43H30.8506C30.8104 114.612 30.7731 114.796 30.7386 114.983C30.6801 115.304 30.6318 115.619 30.5939 115.929C30.5559 116.239 30.5273 116.555 30.508 116.877C30.4884 117.204 30.4781 117.524 30.4781 117.836C30.4781 118.148 30.4884 118.467 30.508 118.794C30.5276 119.121 30.5565 119.437 30.5939 119.745C30.6312 120.052 30.6798 120.368 30.7386 120.688C30.7974 121.009 30.8637 121.318 30.9374 121.622C30.9439 121.646 30.9412 121.672 30.93 121.695C30.9203 121.718 30.9028 121.737 30.8805 121.749C29.4091 122.535 27.9154 123.459 26.4608 124.3L26.5122 124.365L26.4674 124.421C26.2398 124.719 26.1392 125.094 26.1873 125.466C26.2106 125.649 26.2706 125.826 26.3637 125.987L29.4119 131.267L29.4689 131.232C29.4985 131.261 29.5297 131.287 29.5622 131.312C29.7819 131.479 30.0456 131.579 30.3212 131.599C30.5968 131.62 30.8723 131.559 31.1139 131.425C32.447 130.717 33.8213 129.862 35.1367 129.101C35.1571 129.091 35.1803 129.087 35.203 129.09C35.2277 129.093 35.2509 129.103 35.2693 129.12C36.1873 130.005 37.2096 130.776 38.3137 131.414C39.4153 132.05 40.59 132.549 41.8119 132.901C41.8352 132.907 41.8558 132.921 41.8707 132.94C41.8861 132.959 41.8941 132.983 41.8931 133.008V137.631C41.8944 138.006 42.0442 138.364 42.3095 138.628C42.4408 138.759 42.5961 138.863 42.767 138.935C42.9372 139.006 43.12 139.043 43.3047 139.043H48.9791C49.1638 139.043 49.3466 139.006 49.5169 138.935C49.6875 138.863 49.8428 138.759 49.9743 138.628C50.1054 138.497 50.2095 138.341 50.2805 138.17C50.3518 137.999 50.3887 137.816 50.3888 137.631V133.009C50.3883 132.984 50.3962 132.959 50.4112 132.939C50.4275 132.919 50.4498 132.905 50.4747 132.9L50.4924 132.893C51.7072 132.544 52.8745 132.048 53.9682 131.414C55.0736 130.776 56.0968 130.004 57.0155 129.118C57.033 129.1 57.0561 129.089 57.0808 129.087C57.1061 129.085 57.1312 129.091 57.1527 129.105L61.1569 131.416C61.3168 131.509 61.4936 131.569 61.6769 131.592C62.0485 131.641 62.4242 131.54 62.7216 131.312C62.8648 131.202 62.9856 131.066 63.0773 130.911C64.1295 129.22 65.1228 127.364 66.1264 125.63L66.0723 125.597C66.0825 125.553 66.09 125.504 66.0956 125.465C66.1189 125.281 66.1065 125.095 66.0592 124.916C66.0112 124.736 65.9284 124.568 65.8155 124.421C65.7035 124.274 65.5636 124.151 65.4038 124.059L61.3987 121.746C61.3784 121.735 61.3627 121.716 61.3539 121.695C61.344 121.672 61.3417 121.646 61.3473 121.622L61.451 121.198H61.4444C61.4812 121.033 61.5148 120.866 61.5453 120.696C61.6041 120.377 61.6526 120.06 61.69 119.751C61.7273 119.442 61.7563 119.127 61.7749 118.801C61.7936 118.475 61.8048 118.155 61.8048 117.843C61.8048 117.531 61.7945 117.212 61.7749 116.885C61.7553 116.558 61.7264 116.242 61.69 115.934C61.6536 115.626 61.6041 115.312 61.5453 114.989C61.4865 114.666 61.4202 114.361 61.3455 114.062C61.34 114.037 61.343 114.01 61.3539 113.987C61.3648 113.964 61.3828 113.946 61.4052 113.935L65.4048 111.626C65.5647 111.534 65.7044 111.41 65.8155 111.263C66.0428 110.966 66.1435 110.592 66.0956 110.221C66.0724 110.042 66.015 109.868 65.9266 109.71C64.9734 107.945 63.8802 106.163 62.8719 104.418L62.8149 104.452C62.7851 104.424 62.7533 104.398 62.7216 104.373C62.4241 104.146 62.0491 104.045 61.6778 104.093C61.4949 104.116 61.3182 104.175 61.1578 104.266L60.8619 104.435L57.1471 106.583C57.1257 106.595 57.1008 106.601 57.0761 106.598C57.0521 106.594 57.0298 106.583 57.0127 106.566L57.0024 106.556C55.6275 105.23 54.0217 104.168 52.2644 103.421C51.6799 103.172 51.0806 102.959 50.4701 102.784C50.4467 102.778 50.426 102.764 50.4112 102.745C50.3957 102.726 50.3877 102.701 50.3888 102.677V98.0525C50.3876 97.6784 50.2379 97.3201 49.9725 97.0564C49.8418 96.9251 49.6867 96.8208 49.5159 96.7492C49.3456 96.678 49.1628 96.6412 48.9782 96.6409H43.3038C43.1191 96.641 42.9363 96.6778 42.766 96.7492C42.5946 96.8211 42.4386 96.9254 42.3067 97.0564C42.1754 97.1869 42.0712 97.3421 42 97.5131C41.9289 97.684 41.8922 97.8674 41.8922 98.0525V102.677C41.8923 102.702 41.8844 102.727 41.8698 102.748C41.8537 102.766 41.8322 102.78 41.8082 102.786L41.7904 102.791C41.1852 102.965 40.591 103.176 40.011 103.421V103.422Z" fill="#342F2E"/>
<path opacity="0.24" fill-rule="evenodd" clip-rule="evenodd" d="M86.0783 5.47648C86.0719 5.30608 85.9997 5.14481 85.8769 5.02652C85.754 4.90824 85.5902 4.84216 85.4196 4.84216C85.2491 4.84216 85.0852 4.90824 84.9624 5.02652C84.8396 5.14481 84.7674 5.30608 84.761 5.47648V7.02437H83.2131C83.0384 7.02437 82.8709 7.09377 82.7474 7.21729C82.6238 7.34081 82.5544 7.50834 82.5544 7.68303C82.5544 7.85771 82.6238 8.02524 82.7474 8.14876C82.8709 8.27228 83.0384 8.34167 83.2131 8.34167H84.761V9.88957C84.7674 10.06 84.8396 10.2212 84.9624 10.3395C85.0852 10.4578 85.2491 10.5239 85.4196 10.5239C85.5902 10.5239 85.754 10.4578 85.8769 10.3395C85.9997 10.2212 86.0719 10.06 86.0783 9.88957V8.34167H87.6262C87.8009 8.34167 87.9684 8.27228 88.0919 8.14876C88.2154 8.02524 88.2848 7.85771 88.2848 7.68303C88.2848 7.50834 88.2154 7.34081 88.0919 7.21729C87.9684 7.09377 87.8009 7.02437 87.6262 7.02437H86.0783V5.47648Z" fill="#342F2E"/>
<path opacity="0.24" fill-rule="evenodd" clip-rule="evenodd" d="M260.062 27.8435C260.062 27.6689 259.992 27.5015 259.869 27.3781C259.746 27.2546 259.578 27.1853 259.404 27.1853C259.229 27.1853 259.062 27.2546 258.938 27.3781C258.815 27.5015 258.745 27.6689 258.745 27.8435V29.3923H257.198C257.023 29.3923 256.856 29.4617 256.732 29.5851C256.609 29.7085 256.539 29.8759 256.539 30.0505C256.539 30.2251 256.609 30.3925 256.732 30.5159C256.856 30.6393 257.023 30.7087 257.198 30.7087H258.745V32.2566C258.745 32.343 258.762 32.4286 258.796 32.5085C258.829 32.5883 258.877 32.6609 258.938 32.722C258.999 32.7831 259.072 32.8316 259.152 32.8647C259.232 32.8977 259.317 32.9148 259.404 32.9148C259.49 32.9148 259.576 32.8977 259.655 32.8647C259.735 32.8316 259.808 32.7831 259.869 32.722C259.93 32.6609 259.979 32.5883 260.012 32.5085C260.045 32.4286 260.062 32.343 260.062 32.2566V30.7087H261.61C261.784 30.7087 261.952 30.6393 262.075 30.5159C262.198 30.3925 262.268 30.2251 262.268 30.0505C262.268 29.8759 262.198 29.7085 262.075 29.5851C261.952 29.4617 261.784 29.3923 261.61 29.3923H260.062V27.8435Z" fill="#342F2E"/>
<path opacity="0.24" fill-rule="evenodd" clip-rule="evenodd" d="M279.353 110.301C279.353 110.127 279.284 109.959 279.161 109.836C279.037 109.712 278.87 109.643 278.695 109.643C278.521 109.643 278.353 109.712 278.23 109.836C278.106 109.959 278.037 110.127 278.037 110.301V111.85H276.489C276.403 111.85 276.317 111.867 276.237 111.9C276.157 111.933 276.085 111.982 276.024 112.043C275.963 112.104 275.914 112.177 275.881 112.256C275.848 112.336 275.831 112.422 275.831 112.508C275.831 112.595 275.848 112.68 275.881 112.76C275.914 112.84 275.963 112.913 276.024 112.974C276.085 113.035 276.157 113.083 276.237 113.116C276.317 113.149 276.403 113.166 276.489 113.166H278.037V114.714C278.037 114.889 278.106 115.056 278.23 115.18C278.353 115.303 278.521 115.373 278.695 115.373C278.87 115.373 279.037 115.303 279.161 115.18C279.284 115.056 279.353 114.889 279.353 114.714V113.166H280.901C280.988 113.166 281.073 113.149 281.153 113.116C281.233 113.083 281.306 113.035 281.367 112.974C281.428 112.913 281.476 112.84 281.509 112.76C281.543 112.68 281.56 112.595 281.56 112.508C281.56 112.422 281.543 112.336 281.509 112.256C281.476 112.177 281.428 112.104 281.367 112.043C281.306 111.982 281.233 111.933 281.153 111.9C281.073 111.867 280.988 111.85 280.901 111.85H279.353V110.301Z" fill="#342F2E"/>
<path opacity="0.24" fill-rule="evenodd" clip-rule="evenodd" d="M278.847 217.294C278.847 217.119 278.778 216.952 278.655 216.828C278.531 216.705 278.364 216.636 278.189 216.636C278.015 216.636 277.847 216.705 277.724 216.828C277.6 216.952 277.531 217.119 277.531 217.294V218.844H275.982C275.808 218.844 275.64 218.914 275.516 219.037C275.393 219.161 275.324 219.328 275.324 219.503C275.324 219.678 275.393 219.845 275.516 219.969C275.64 220.092 275.808 220.162 275.982 220.162H277.531V221.71C277.531 221.796 277.548 221.882 277.581 221.962C277.614 222.041 277.663 222.114 277.724 222.175C277.785 222.236 277.858 222.285 277.937 222.318C278.017 222.351 278.103 222.368 278.189 222.368C278.276 222.368 278.361 222.351 278.441 222.318C278.521 222.285 278.594 222.236 278.655 222.175C278.716 222.114 278.764 222.041 278.797 221.962C278.83 221.882 278.847 221.796 278.847 221.71V220.162H280.396C280.571 220.162 280.739 220.092 280.862 219.969C280.986 219.845 281.055 219.678 281.055 219.503C281.055 219.328 280.986 219.161 280.862 219.037C280.739 218.914 280.571 218.844 280.396 218.844H278.847V217.294Z" fill="#342F2E"/>
<path opacity="0.24" fill-rule="evenodd" clip-rule="evenodd" d="M3.52244 220.16C3.52244 219.985 3.45309 219.818 3.32966 219.694C3.20622 219.571 3.03882 219.502 2.86426 219.502C2.6897 219.502 2.52229 219.571 2.39886 219.694C2.27542 219.818 2.20607 219.985 2.20607 220.16V221.709H0.658185C0.483624 221.709 0.316203 221.778 0.19277 221.902C0.0693368 222.025 0 222.192 0 222.367C0 222.541 0.0693368 222.709 0.19277 222.832C0.316203 222.956 0.483624 223.025 0.658185 223.025H2.20607V224.574C2.20607 224.748 2.27542 224.916 2.39886 225.039C2.52229 225.163 2.6897 225.232 2.86426 225.232C3.03882 225.232 3.20622 225.163 3.32966 225.039C3.45309 224.916 3.52244 224.748 3.52244 224.574V223.025H5.07034C5.24491 223.025 5.41231 222.956 5.53574 222.832C5.65918 222.709 5.72853 222.541 5.72853 222.367C5.72853 222.192 5.65918 222.025 5.53574 221.902C5.41231 221.778 5.24491 221.709 5.07034 221.709H3.52244V220.16Z" fill="#342F2E"/>
<path opacity="0.24" fill-rule="evenodd" clip-rule="evenodd" d="M34.7185 161.352C34.7185 161.177 34.6491 161.01 34.5257 160.887C34.4023 160.763 34.2348 160.694 34.0603 160.694C33.8857 160.694 33.7183 160.763 33.5949 160.887C33.4715 161.01 33.4021 161.177 33.4021 161.352V162.9H31.8542C31.6795 162.9 31.512 162.969 31.3885 163.093C31.2649 163.216 31.1956 163.384 31.1956 163.559C31.1956 163.733 31.2649 163.901 31.3885 164.024C31.512 164.148 31.6795 164.217 31.8542 164.217H33.4021V165.765C33.4021 165.94 33.4715 166.107 33.5949 166.23C33.7183 166.354 33.8857 166.423 34.0603 166.423C34.2348 166.423 34.4023 166.354 34.5257 166.23C34.6491 166.107 34.7185 165.94 34.7185 165.765V164.214H36.2673C36.442 164.214 36.6095 164.145 36.733 164.021C36.8566 163.898 36.926 163.73 36.926 163.556C36.926 163.381 36.8566 163.214 36.733 163.09C36.6095 162.966 36.442 162.897 36.2673 162.897H34.7185V161.352Z" fill="#342F2E"/>
<path opacity="0.24" fill-rule="evenodd" clip-rule="evenodd" d="M54.8308 24.8672C55.458 24.2381 56.2838 23.8461 57.1676 23.7577C58.0514 23.6694 58.9385 23.8902 59.6777 24.3826C60.417 24.875 60.9625 25.6086 61.2215 26.4582C61.4805 27.3078 61.4369 28.2209 61.0981 29.042C60.7593 29.863 60.1463 30.5412 59.3635 30.9609C58.5807 31.3806 57.6766 31.5159 56.8052 31.3437C55.9338 31.1715 55.1491 30.7025 54.5848 30.0166C54.0205 29.3306 53.7115 28.4703 53.7105 27.582C53.7093 27.078 53.8077 26.5788 53.9999 26.1129C54.1922 25.647 54.4746 25.2236 54.8308 24.8672V24.8672ZM55.6599 21.0618C55.1341 21.2135 54.6287 21.4285 54.1549 21.7023C53.6763 21.9794 53.233 22.3136 52.8348 22.6975C52.7981 22.7328 52.751 22.7552 52.7005 22.7614C52.65 22.7676 52.5989 22.7573 52.5548 22.732L50.7706 21.7051L50.7604 21.6995C50.6589 21.6451 50.5403 21.6323 50.4296 21.6636C50.3188 21.695 50.2245 21.7681 50.1666 21.8675L50.1591 21.8787L48.9044 24.0521C48.8463 24.1539 48.8306 24.2745 48.8609 24.3878C48.8911 24.501 48.9648 24.5978 49.0659 24.6571L49.078 24.6646L50.8519 25.6868C50.896 25.7123 50.9306 25.7513 50.9507 25.7981C50.9707 25.8449 50.975 25.8969 50.963 25.9464V25.9464C50.8968 26.2135 50.8469 26.4845 50.8136 26.7577C50.7471 27.3068 50.7471 27.8619 50.8136 28.4111C50.8469 28.684 50.8968 28.9546 50.963 29.2214C50.9757 29.2737 50.9703 29.3287 50.9475 29.3774C50.9248 29.4261 50.8861 29.4656 50.8379 29.4894L49.0631 30.5089C48.9622 30.5681 48.8887 30.6647 48.8585 30.7778C48.8283 30.8908 48.8438 31.0112 48.9016 31.1129L50.1638 33.3003C50.2229 33.4011 50.3193 33.4746 50.4321 33.505C50.5449 33.5354 50.6652 33.5202 50.7669 33.4627L50.78 33.4553L52.5538 32.4283C52.5981 32.4035 52.6491 32.3934 52.6995 32.3996C52.7499 32.4058 52.797 32.428 52.8339 32.4629C53.2322 32.8466 53.6754 33.1808 54.154 33.4581C54.6305 33.7337 55.1391 33.9497 55.6683 34.1013C55.7178 34.1155 55.7613 34.1454 55.7922 34.1865C55.8232 34.2276 55.84 34.2777 55.84 34.3291V36.383C55.8405 36.4998 55.8871 36.6117 55.9696 36.6944C56.0521 36.7771 56.1639 36.8239 56.2807 36.8246H58.8061C58.923 36.8239 59.0349 36.7771 59.1175 36.6945C59.2002 36.6118 59.2469 36.4999 59.2477 36.383V34.3291C59.2476 34.2759 59.2655 34.2243 59.2983 34.1825C59.3312 34.1407 59.3771 34.1111 59.4288 34.0985C59.9547 33.9472 60.4601 33.7322 60.9337 33.4581C61.4124 33.1809 61.8556 32.8467 62.2538 32.4629C62.2924 32.4258 62.3424 32.403 62.3957 32.3981C62.4489 32.3932 62.5023 32.4065 62.547 32.4358L64.3208 33.4627C64.4226 33.5205 64.5431 33.5358 64.6562 33.5054C64.7692 33.475 64.8657 33.4013 64.9249 33.3003L64.9323 33.2882L66.188 31.1129C66.2458 31.0113 66.2612 30.8911 66.231 30.7782C66.2008 30.6653 66.1273 30.5689 66.0265 30.5098L64.2443 29.4828C64.2001 29.4573 64.1654 29.4181 64.1453 29.3711C64.1253 29.3241 64.121 29.272 64.1332 29.2224V29.2224C64.1996 28.9553 64.2495 28.6843 64.2825 28.4111C64.3491 27.8616 64.3491 27.3062 64.2825 26.7568C64.2494 26.4838 64.1995 26.2132 64.1332 25.9464C64.1204 25.8942 64.1258 25.8391 64.1486 25.7904C64.1713 25.7417 64.21 25.7022 64.2583 25.6785L66.0321 24.6562C66.1327 24.5969 66.206 24.5005 66.2362 24.3877C66.2665 24.2749 66.2511 24.1547 66.1936 24.0531L66.1871 24.04L64.9323 21.8666C64.8735 21.7655 64.7772 21.6916 64.6643 21.661C64.5514 21.6304 64.431 21.6456 64.3292 21.7032V21.7032L62.5451 22.7302C62.4998 22.7563 62.447 22.7667 62.3951 22.7596C62.3432 22.7525 62.2952 22.7283 62.2585 22.6909C61.8617 22.3094 61.4204 21.9772 60.944 21.7013C60.4676 21.4256 59.959 21.2096 59.4297 21.0581C59.3802 21.0442 59.3367 21.0145 59.3056 20.9736C59.2746 20.9326 59.2579 20.8826 59.2579 20.8312V18.7773C59.2574 18.6604 59.2107 18.5485 59.128 18.466C59.0453 18.3834 58.9332 18.3369 58.8163 18.3367H56.291C56.1742 18.3369 56.0622 18.3834 55.9797 18.466C55.8971 18.5486 55.8506 18.6605 55.8503 18.7773V20.8312C55.8501 20.8856 55.8311 20.9383 55.7966 20.9803C55.7621 21.0223 55.7141 21.0511 55.6608 21.0618H55.6599Z" fill="#342F2E"/>
<path opacity="0.24" fill-rule="evenodd" clip-rule="evenodd" d="M247.989 81.19C248.616 80.5612 249.441 80.1693 250.325 80.081C251.208 79.9928 252.095 80.2136 252.834 80.7059C253.573 81.1982 254.119 81.9316 254.377 82.7809C254.636 83.6303 254.593 84.5432 254.254 85.364C253.915 86.1849 253.302 86.8628 252.52 87.2825C251.737 87.7021 250.833 87.8373 249.962 87.6652C249.091 87.4931 248.307 87.0243 247.742 86.3386C247.178 85.6529 246.869 84.7928 246.868 83.9048C246.867 83.4008 246.965 82.9016 247.158 82.4357C247.35 81.9698 247.632 81.5464 247.989 81.19V81.19ZM248.818 77.3846C247.757 77.6923 246.787 78.2541 245.992 79.0212C245.956 79.0562 245.908 79.0784 245.858 79.0844C245.808 79.0905 245.756 79.0801 245.712 79.0548L243.928 78.0279L243.918 78.0223C243.816 77.9686 243.698 77.9562 243.587 77.9875C243.477 78.0188 243.383 78.0914 243.324 78.1903L243.317 78.2034L242.062 80.3768C242.004 80.4787 241.988 80.5994 242.019 80.7127C242.049 80.8259 242.123 80.9226 242.224 80.9818L242.237 80.9883L244.01 82.0106C244.055 82.036 244.089 82.075 244.109 82.1218C244.129 82.1686 244.134 82.2207 244.122 82.2701V82.2701C243.856 83.3462 243.856 84.4709 244.122 85.547C244.134 85.5991 244.129 85.6541 244.106 85.7027C244.083 85.7513 244.045 85.7906 243.996 85.814L242.227 86.8363C242.126 86.8954 242.053 86.992 242.022 87.105C241.992 87.2181 242.007 87.3385 242.065 87.4404L243.327 89.6268C243.386 89.7279 243.483 89.8015 243.596 89.8318C243.709 89.862 243.829 89.8464 243.931 89.7883L243.944 89.7818L245.718 88.7549C245.762 88.7294 245.813 88.719 245.864 88.7252C245.914 88.7315 245.961 88.754 245.998 88.7894C246.396 89.1732 246.839 89.5071 247.318 89.7837C247.795 90.0596 248.303 90.276 248.832 90.4278C248.882 90.4418 248.925 90.4714 248.956 90.5121C248.987 90.5529 249.004 90.6026 249.004 90.6538V92.7105C249.005 92.8275 249.051 92.9395 249.134 93.0222C249.217 93.1049 249.329 93.1516 249.446 93.1521H251.967C252.083 93.1511 252.195 93.1043 252.278 93.0217C252.36 92.9391 252.407 92.8273 252.408 92.7105V90.6566C252.408 90.6034 252.426 90.5518 252.459 90.5101C252.492 90.4684 252.538 90.4391 252.59 90.4269C253.116 90.2753 253.621 90.0599 254.094 89.7855C254.573 89.5086 255.017 89.1741 255.415 88.7894C255.454 88.7519 255.504 88.7287 255.557 88.7238C255.61 88.7189 255.664 88.7325 255.708 88.7623L257.482 89.7846C257.584 89.8429 257.704 89.8587 257.818 89.8284C257.931 89.7982 258.027 89.7243 258.086 89.6231L258.095 89.6119L259.349 87.4366C259.407 87.335 259.423 87.2147 259.392 87.1018C259.362 86.9888 259.289 86.8922 259.189 86.8326L257.407 85.8056C257.362 85.7804 257.327 85.7414 257.307 85.6946C257.287 85.6477 257.283 85.5956 257.295 85.5461V85.5461C257.361 85.2785 257.411 85.0073 257.444 84.7339C257.51 84.1847 257.51 83.6296 257.444 83.0805C257.411 82.8073 257.361 82.5364 257.295 82.2692C257.282 82.2171 257.288 82.162 257.31 82.1133C257.333 82.0646 257.371 82.025 257.42 82.0012L259.193 80.9799C259.294 80.9205 259.367 80.824 259.397 80.7112C259.427 80.5984 259.412 80.4783 259.354 80.3768L259.348 80.3637L258.093 78.1894C258.033 78.0889 257.937 78.0158 257.824 77.9856C257.711 77.9554 257.591 77.9706 257.49 78.0279L255.706 79.0548C255.66 79.0811 255.608 79.0915 255.556 79.0844C255.504 79.0773 255.456 79.0531 255.42 79.0156C255.023 78.6337 254.581 78.3014 254.104 78.026C253.627 77.7503 253.119 77.5339 252.59 77.3818C252.541 77.368 252.497 77.3385 252.466 77.2977C252.435 77.2569 252.419 77.2071 252.418 77.1559V75.102C252.418 74.985 252.371 74.873 252.289 74.7903C252.206 74.7076 252.094 74.6609 251.977 74.6604H249.44C249.323 74.6606 249.211 74.7072 249.128 74.79C249.045 74.8728 248.999 74.985 248.999 75.102V77.1559C248.999 77.2091 248.981 77.2608 248.948 77.3027C248.915 77.3446 248.869 77.3741 248.818 77.3865V77.3846Z" fill="#342F2E"/>
<path opacity="0.24" fill-rule="evenodd" clip-rule="evenodd" d="M177.292 6.53142C177.92 5.90402 178.746 5.51374 179.629 5.42704C180.513 5.34034 181.399 5.5626 182.137 6.05594C182.875 6.54929 183.419 7.28321 183.676 8.13268C183.934 8.98214 183.889 9.89461 183.549 10.7146C183.209 11.5346 182.596 12.2115 181.813 12.6299C181.03 13.0483 180.126 13.1823 179.256 13.0091C178.385 12.8359 177.601 12.3663 177.038 11.6802C176.475 10.9941 176.167 10.1339 176.167 9.24631C176.167 8.74198 176.266 8.24251 176.459 7.7766C176.652 7.31069 176.935 6.88752 177.292 6.53142V6.53142ZM178.121 2.72609C177.595 2.87808 177.09 3.09345 176.616 3.36747C176.138 3.64441 175.694 3.97826 175.296 4.36174C175.259 4.39701 175.212 4.41944 175.162 4.42567C175.111 4.4319 175.06 4.42159 175.016 4.39629L173.232 3.36933L173.223 3.36373C173.121 3.30935 173.002 3.29647 172.891 3.32781C172.78 3.35915 172.686 3.43226 172.628 3.53178L172.621 3.54392L171.367 5.71732C171.308 5.81906 171.292 5.93976 171.323 6.05308C171.353 6.16641 171.427 6.26318 171.528 6.32229L171.539 6.32883L173.313 7.35018C173.357 7.37546 173.392 7.41444 173.412 7.46124C173.433 7.50805 173.437 7.56016 173.425 7.60971V7.60971C173.358 7.87675 173.309 8.14771 173.276 8.42101C173.209 8.97013 173.209 9.52528 173.276 10.0744C173.309 10.348 173.358 10.6193 173.425 10.8866C173.438 10.9387 173.432 10.9935 173.409 11.0421C173.387 11.0906 173.348 11.1299 173.3 11.1536L171.526 12.175C171.425 12.2341 171.351 12.3309 171.321 12.4442C171.291 12.5575 171.306 12.6782 171.365 12.78L172.626 14.9664C172.685 15.0673 172.782 15.1408 172.895 15.171C173.008 15.2012 173.128 15.1858 173.23 15.1279L173.243 15.1214L175.017 14.0945C175.061 14.0689 175.112 14.0583 175.162 14.0642C175.213 14.0701 175.26 14.0922 175.297 14.1271C176.094 14.8975 177.067 15.4604 178.132 15.7665C178.181 15.7805 178.225 15.8101 178.256 15.8509C178.286 15.8917 178.303 15.9413 178.303 15.9924V18.0464C178.304 18.1631 178.35 18.2749 178.433 18.3574C178.515 18.4399 178.627 18.4865 178.744 18.487H181.269C181.386 18.4865 181.498 18.44 181.581 18.3575C181.663 18.275 181.71 18.1632 181.711 18.0464V15.9924C181.711 15.9394 181.729 15.8879 181.762 15.8462C181.794 15.8045 181.84 15.7752 181.892 15.7628C182.953 15.4556 183.923 14.8938 184.717 14.1262C184.755 14.0894 184.805 14.0667 184.858 14.062C184.912 14.0572 184.965 14.0707 185.009 14.1001L186.783 15.127C186.885 15.1848 187.005 15.2002 187.118 15.17C187.231 15.1398 187.327 15.0663 187.386 14.9655L187.395 14.9524L188.65 12.7772C188.708 12.6756 188.723 12.5556 188.693 12.4428C188.663 12.33 188.59 12.2335 188.49 12.1741L186.707 11.1471C186.663 11.1218 186.628 11.0828 186.608 11.0359C186.588 10.9891 186.584 10.937 186.596 10.8876C186.662 10.6201 186.712 10.3488 186.746 10.0753C186.812 9.5259 186.812 8.97044 186.746 8.42101C186.712 8.14812 186.662 7.8775 186.596 7.61065C186.583 7.55841 186.588 7.50325 186.611 7.45445C186.634 7.40565 186.673 7.36619 186.721 7.34271L188.495 6.32136C188.596 6.26176 188.669 6.1651 188.699 6.05215C188.729 5.9392 188.713 5.81898 188.656 5.71732L188.649 5.70425L187.395 3.52991C187.336 3.42892 187.239 3.35528 187.126 3.32504C187.013 3.29479 186.893 3.31037 186.791 3.3684V3.3684L185.008 4.39536C184.963 4.42152 184.91 4.43186 184.858 4.42476C184.806 4.41766 184.758 4.39352 184.722 4.35614C184.325 3.97418 183.883 3.64188 183.406 3.36654C182.93 3.09052 182.421 2.87417 181.892 2.72235C181.843 2.70853 181.799 2.67899 181.768 2.63821C181.737 2.59744 181.72 2.54765 181.72 2.49643V0.442522C181.72 0.32547 181.673 0.213338 181.59 0.130482C181.508 0.0476251 181.396 0.000736707 181.279 0H178.753C178.636 0.000738484 178.524 0.0476559 178.442 0.130539C178.359 0.213421 178.313 0.325556 178.313 0.442522V2.49643C178.312 2.55101 178.292 2.60363 178.257 2.64533C178.222 2.68703 178.173 2.71524 178.119 2.72516L178.121 2.72609Z" fill="#342F2E"/>
</g>
<path d="M201.667 247.81L125.513 247.456C121.115 247.436 116.905 245.67 113.808 242.546C110.712 239.422 108.983 235.197 109.002 230.798L109.808 39.8784C109.818 37.6994 110.256 35.5436 111.099 33.534C111.941 31.5245 113.172 29.7006 114.719 28.1666C116.267 26.6326 118.101 25.4186 120.118 24.5937C122.135 23.7689 124.295 23.3495 126.474 23.3594L202.628 23.7114C207.026 23.7319 211.237 25.4983 214.333 28.6223C217.429 31.7463 219.158 35.972 219.14 40.3704L218.332 231.29C218.323 233.469 217.885 235.625 217.042 237.635C216.2 239.645 214.97 241.469 213.422 243.003C211.875 244.537 210.04 245.751 208.023 246.576C206.006 247.401 203.846 247.82 201.667 247.81V247.81Z" fill="#342F2E"/>
<path d="M202.122 30.4006L187.356 30.3371C186.875 30.3457 186.399 30.4492 185.958 30.6415C185.516 30.8339 185.116 31.1114 184.782 31.4582C184.448 31.805 184.185 32.2143 184.009 32.6627C183.833 33.1111 183.746 33.5898 183.755 34.0715L183.743 36.749C183.752 37.2307 183.666 37.7094 183.49 38.1578C183.314 38.6062 183.051 39.0155 182.717 39.3623C182.382 39.7091 181.983 39.9866 181.541 40.1789C181.099 40.3713 180.624 40.4747 180.142 40.4834L151.362 40.3508C150.389 40.3239 149.467 39.9124 148.798 39.2064C148.129 38.5005 147.767 37.558 147.792 36.5856L147.804 33.9081C147.828 32.9356 147.467 31.9931 146.797 31.2872C146.128 30.5813 145.206 30.1698 144.234 30.1429L139.041 30.1196L126.118 30.0598C124.592 30.053 123.08 30.3469 121.668 30.9247C120.255 31.5025 118.971 32.3528 117.887 33.4271C116.803 34.5014 115.942 35.7787 115.352 37.186C114.762 38.5932 114.455 40.103 114.448 41.6289L113.66 227.981C113.647 231.062 114.857 234.022 117.026 236.21C119.195 238.399 122.144 239.636 125.225 239.651L201.227 240.001C202.753 240.007 204.265 239.714 205.677 239.136C207.089 238.558 208.374 237.708 209.458 236.634C210.542 235.56 211.403 234.282 211.993 232.875C212.583 231.468 212.89 229.958 212.897 228.432L213.684 42.0667C213.696 38.9868 212.486 36.0278 210.318 33.8402C208.15 31.6526 205.202 30.4154 202.122 30.4006Z" fill="white"/>
<path opacity="0.8" d="M135.836 77.4845C141.25 77.4845 145.639 73.5136 145.639 68.6154C145.639 63.7171 141.25 59.7462 135.836 59.7462C130.422 59.7462 126.033 63.7171 126.033 68.6154C126.033 73.5136 130.422 77.4845 135.836 77.4845Z" fill="#FF0000"/>
<path opacity="0.8" d="M135.836 104.559C141.25 104.559 145.639 100.588 145.639 95.6895C145.639 90.7912 141.25 86.8204 135.836 86.8204C130.422 86.8204 126.033 90.7912 126.033 95.6895C126.033 100.588 130.422 104.559 135.836 104.559Z" fill="#03AD3D"/>
<path opacity="0.8" d="M135.836 186.715C141.25 186.715 145.639 182.535 145.639 177.379C145.639 172.223 141.25 168.043 135.836 168.043C130.422 168.043 126.033 172.223 126.033 177.379C126.033 182.535 130.422 186.715 135.836 186.715Z" fill="#70FF00"/>
<path opacity="0.8" d="M135.836 211.922C141.25 211.922 145.639 207.951 145.639 203.053C145.639 198.154 141.25 194.184 135.836 194.184C130.422 194.184 126.033 198.154 126.033 203.053C126.033 207.951 130.422 211.922 135.836 211.922Z" fill="#70FF00"/>
<path opacity="0.8" d="M135.836 159.641C141.25 159.641 145.639 155.252 145.639 149.838C145.639 144.424 141.25 140.035 135.836 140.035C130.422 140.035 126.033 144.424 126.033 149.838C126.033 155.252 130.422 159.641 135.836 159.641Z" fill="#03AD3D"/>
<path opacity="0.8" d="M162.91 77.4845C168.324 77.4845 172.713 73.5136 172.713 68.6154C172.713 63.7171 168.324 59.7462 162.91 59.7462C157.496 59.7462 153.107 63.7171 153.107 68.6154C153.107 73.5136 157.496 77.4845 162.91 77.4845Z" fill="#70FF00"/>
<path opacity="0.8" d="M162.91 104.559C168.324 104.559 172.713 100.588 172.713 95.6895C172.713 90.7912 168.324 86.8204 162.91 86.8204C157.496 86.8204 153.107 90.7912 153.107 95.6895C153.107 100.588 157.496 104.559 162.91 104.559Z" fill="#FF0000"/>
<path opacity="0.8" d="M162.91 186.715C168.324 186.715 172.713 182.535 172.713 177.379C172.713 172.223 168.324 168.043 162.91 168.043C157.496 168.043 153.107 172.223 153.107 177.379C153.107 182.535 157.496 186.715 162.91 186.715Z" fill="#03AD3D"/>
<path opacity="0.8" d="M162.91 211.922C168.324 211.922 172.713 207.951 172.713 203.053C172.713 198.154 168.324 194.184 162.91 194.184C157.496 194.184 153.107 198.154 153.107 203.053C153.107 207.951 157.496 211.922 162.91 211.922Z" fill="#FF0000"/>
<path opacity="0.8" d="M162.91 159.641C168.324 159.641 172.713 155.252 172.713 149.838C172.713 144.424 168.324 140.035 162.91 140.035C157.496 140.035 153.107 144.424 153.107 149.838C153.107 155.252 157.496 159.641 162.91 159.641Z" fill="#FF0000"/>
<path opacity="0.8" d="M189.518 77.4845C194.674 77.4845 198.854 73.5136 198.854 68.6154C198.854 63.7171 194.674 59.7462 189.518 59.7462C184.361 59.7462 180.182 63.7171 180.182 68.6154C180.182 73.5136 184.361 77.4845 189.518 77.4845Z" fill="#03AD3D"/>
<path opacity="0.8" d="M189.518 104.559C194.674 104.559 198.854 100.588 198.854 95.6895C198.854 90.7912 194.674 86.8204 189.518 86.8204C184.361 86.8204 180.182 90.7912 180.182 95.6895C180.182 100.588 184.361 104.559 189.518 104.559Z" fill="#70FF00"/>
<path opacity="0.8" d="M189.518 186.715C194.674 186.715 198.854 182.535 198.854 177.379C198.854 172.223 194.674 168.043 189.518 168.043C184.361 168.043 180.182 172.223 180.182 177.379C180.182 182.535 184.361 186.715 189.518 186.715Z" fill="#03AD3D"/>
<path opacity="0.8" d="M189.518 211.922C194.674 211.922 198.854 207.951 198.854 203.053C198.854 198.154 194.674 194.184 189.518 194.184C184.361 194.184 180.182 198.154 180.182 203.053C180.182 207.951 184.361 211.922 189.518 211.922Z" fill="#03AD3D"/>
<path opacity="0.8" d="M189.984 159.641C195.398 159.641 199.787 155.252 199.787 149.838C199.787 144.424 195.398 140.035 189.984 140.035C184.57 140.035 180.182 144.424 180.182 149.838C180.182 155.252 184.57 159.641 189.984 159.641Z" fill="#70FF00"/>
<path opacity="0.8" d="M135.836 132.566C141.25 132.566 145.639 128.387 145.639 123.231C145.639 118.074 141.25 113.895 135.836 113.895C130.422 113.895 126.033 118.074 126.033 123.231C126.033 128.387 130.422 132.566 135.836 132.566Z" fill="#70FF00"/>
<path opacity="0.8" d="M162.91 132.566C168.324 132.566 172.713 128.387 172.713 123.231C172.713 118.074 168.324 113.895 162.91 113.895C157.496 113.895 153.107 118.074 153.107 123.231C153.107 128.387 157.496 132.566 162.91 132.566Z" fill="#FF0000"/>
<path opacity="0.8" d="M189.518 132.566C194.674 132.566 198.854 128.387 198.854 123.231C198.854 118.074 194.674 113.895 189.518 113.895C184.361 113.895 180.182 118.074 180.182 123.231C180.182 128.387 184.361 132.566 189.518 132.566Z" fill="#FF0000"/>
<path d="M177.036 223.128H149.036V225.227H177.036V223.128Z" fill="#5E5D5C"/>
<path fill-rule="evenodd" clip-rule="evenodd" d="M65.8239 245.086C65.8239 245.086 66.5194 243.863 67.5464 244.41C68.5733 244.957 68.7601 244.894 69.7235 244.248C70.687 243.603 72.711 244.342 72.711 244.342C72.711 244.342 78.5824 246.37 79.3395 246.692C80.0967 247.014 80.6998 247.625 80.6998 249.399L79.8829 250.268H66.0349C66.0349 250.268 65.3394 249.657 65.3095 249.141C65.2796 248.626 65.2806 245.859 65.8239 245.086Z" fill="#342F2E"/>
<path d="M80.4328 249.175H65.6185C65.189 249.175 64.8408 249.523 64.8408 249.953V250.07C64.8408 250.5 65.189 250.848 65.6185 250.848H80.4328C80.8623 250.848 81.2104 250.5 81.2104 250.07V249.953C81.2104 249.523 80.8623 249.175 80.4328 249.175Z" fill="#EAE8E8"/>
<path fill-rule="evenodd" clip-rule="evenodd" d="M99.844 244.776C99.844 244.776 100.577 243.487 101.66 244.064C102.743 244.641 102.934 244.572 103.954 243.894C104.973 243.215 107.101 243.995 107.101 243.995C107.101 243.995 113.289 246.133 114.086 246.471C114.883 246.81 115.52 247.455 115.52 249.322L114.659 250.238H100.067C100.067 250.238 99.3343 249.592 99.3025 249.05C99.2708 248.508 99.2699 245.59 99.844 244.776Z" fill="#342F2E"/>
<path d="M115.242 249.084H99.6284C99.1757 249.084 98.8087 249.451 98.8087 249.904V250.029C98.8087 250.482 99.1757 250.849 99.6284 250.849H115.242C115.695 250.849 116.062 250.482 116.062 250.029V249.904C116.062 249.451 115.695 249.084 115.242 249.084Z" fill="#EDEBEB"/>
<path fill-rule="evenodd" clip-rule="evenodd" d="M92.3604 151.301C93.4723 151.021 94.4927 150.724 94.8605 152.124C98.6552 166.125 101.149 180.445 102.311 194.904C102.72 201.082 97.4307 202.56 95.3665 201.465C89.1805 198.171 76.746 159.059 76.7143 158.836C75.8171 152.612 92.3604 151.301 92.3604 151.301Z" fill="#00000F"/>
<path fill-rule="evenodd" clip-rule="evenodd" d="M87.7989 153.651C88.9434 153.73 90.005 153.768 89.9181 155.214C89.1601 169.699 87.0662 184.084 83.663 198.184C82.1264 204.182 76.6396 203.942 75.0208 202.255C70.1661 197.198 70.5395 156.159 70.5806 155.937C71.6701 149.745 87.7989 153.651 87.7989 153.651Z" fill="#342F2E"/>
<path fill-rule="evenodd" clip-rule="evenodd" d="M102.708 198.191C103.058 208.735 102.511 231.473 105.509 244.15C104.603 245.252 101.701 246.06 100.422 244.908C99.2951 243.894 93.3649 214.832 92.2063 198.668C92.2063 198.668 91.8189 192.899 93.9409 190.883C96.0163 188.908 102.3 189.07 102.708 198.191Z" fill="#00000F"/>
<path fill-rule="evenodd" clip-rule="evenodd" d="M83.0217 201.433C80.2209 211.042 73.2311 230.827 71.5805 243.911C71.0923 247.789 66.6717 245.084 66.5391 244.853C65.7848 243.538 68.9581 214.331 72.8876 198.61C72.8876 198.61 74.316 193.008 76.9618 191.752C79.5553 190.526 85.4761 192.643 83.0217 201.433Z" fill="#342F2E"/>
<path fill-rule="evenodd" clip-rule="evenodd" d="M70.4993 156.422C74.0591 164.917 94.7223 163.791 96.5232 160.276C97.1263 159.095 96.7772 157.347 96.5055 155.783C93.0176 135.75 101.652 111.41 87.6364 104.504L85.716 103.557C85.5958 102.749 85.7018 101.923 86.0222 101.171C84.4481 100.891 83.0832 103.142 81.3972 103.212L79.7792 102.598C68.4977 108.555 74.4699 124.205 72.7175 138.524C71.9623 144.734 68.8833 152.567 70.4993 156.422Z" fill="#FCBE1B"/>
<path fill-rule="evenodd" clip-rule="evenodd" d="M99.775 84.8095L100.448 88.866C100.448 88.866 97.1273 99.0561 95.4347 100.787C93.7421 102.518 92.3492 103.121 89.962 102.204C87.5748 101.287 88.3188 97.4028 88.3319 96.2292C88.345 95.0557 91.7601 84.8151 99.775 84.8095Z" fill="#F5AC83"/>
<path fill-rule="evenodd" clip-rule="evenodd" d="M90.5875 97.1694L92.9158 98.6118C92.9158 98.6118 88.893 106.148 88.3991 106.361C87.9052 106.573 79.6859 102.807 80.4767 101.765C81.364 100.814 82.156 99.7779 82.8414 98.6724C83.424 97.4831 84 95.8231 84 95.8231L90.5875 97.1694Z" fill="#F5AC83"/>
<path fill-rule="evenodd" clip-rule="evenodd" d="M89.1992 105.244C89.2954 105.364 89.3661 105.502 89.4071 105.649C89.448 105.797 89.4583 105.952 89.4373 106.104C89.3673 106.394 89.2048 107.198 89.1021 107.707L89.0144 108.149C89.0144 108.149 88.3441 108.688 86.1324 107.573C83.9207 106.459 79.9305 103.908 79.7009 103.471C79.4712 103.034 80.5859 101.19 80.5859 101.19C80.5859 101.19 86.1315 104.345 89.1992 105.244Z" fill="white"/>
<path fill-rule="evenodd" clip-rule="evenodd" d="M100.448 88.8659C100.448 88.8659 99.3679 86.4237 97.4989 88.1555C95.6298 89.8873 96.1507 93.4191 95.9117 93.8215C95.6727 94.2238 95.459 91.5099 94.0866 91.6126C92.7142 91.7153 93.3397 95.1752 93.5115 96.4673C93.6833 97.7593 91.7078 99.0636 90.3205 99.8133C88.9331 100.563 83.4791 99.3007 82.8442 98.6687C82.2094 98.0366 80.0687 88.8239 82.5585 82.5063C85.0484 76.1887 91.5883 75.8274 95.5159 78.5236C98.9823 80.9015 99.0785 77.689 101.835 80.3955C104.224 82.7434 102.376 87.4768 100.448 88.8659Z" fill="#342F2E"/>
<path fill-rule="evenodd" clip-rule="evenodd" d="M100.401 88.1835C100.385 88.1896 100.37 88.1989 100.357 88.2108C100.345 88.2227 100.334 88.237 100.327 88.2529C100.313 88.2849 100.312 88.3214 100.324 88.3543C100.336 88.3873 100.361 88.4139 100.393 88.4285C100.425 88.443 100.462 88.4442 100.495 88.4318C100.506 88.4318 104.118 87.1397 103.786 82.427C103.784 82.4097 103.78 82.3928 103.772 82.3773C103.764 82.3618 103.754 82.348 103.74 82.3366C103.727 82.3252 103.712 82.3166 103.696 82.3111C103.679 82.3056 103.662 82.3034 103.645 82.3047C103.627 82.3059 103.611 82.3105 103.595 82.3183C103.58 82.326 103.566 82.3367 103.554 82.3498C103.543 82.3629 103.534 82.3781 103.529 82.3945C103.523 82.411 103.521 82.4283 103.522 82.4456C103.838 86.9595 100.412 88.1807 100.401 88.1835Z" fill="#342F2E"/>
<path fill-rule="evenodd" clip-rule="evenodd" d="M92.4715 78.3378C92.4592 78.3255 92.4447 78.3158 92.4286 78.3092C92.4126 78.3026 92.3955 78.2991 92.3781 78.2991C92.3608 78.2991 92.3436 78.3026 92.3276 78.3092C92.3116 78.3158 92.297 78.3255 92.2848 78.3378C92.2725 78.3501 92.2628 78.3646 92.2561 78.3806C92.2495 78.3967 92.2461 78.4138 92.2461 78.4312C92.2461 78.4485 92.2495 78.4657 92.2561 78.4817C92.2628 78.4977 92.2725 78.5123 92.2848 78.5245C92.2922 78.532 94.9371 81.3113 99.1093 79.094C99.1401 79.0776 99.1632 79.0495 99.1733 79.0161C99.1835 78.9826 99.1799 78.9465 99.1635 78.9157C99.147 78.8849 99.119 78.8619 99.0855 78.8517C99.0521 78.8415 99.016 78.8451 98.9852 78.8615C94.9922 80.9808 92.4799 78.3453 92.4715 78.3378Z" fill="#342F2E"/>
<path fill-rule="evenodd" clip-rule="evenodd" d="M100.374 87.165C100.374 87.165 100.561 91.3325 100.525 92.099C100.488 92.8655 99.8421 93.392 99.6704 94.4517C99.4986 95.5113 99.746 97.7248 99.6956 98.2794C99.6452 98.8339 98.3951 98.5268 98.0674 98.8255C98.031 98.8591 95.373 102.259 95.3432 102.333C94.3797 104.667 92.0672 102.831 90.8162 102.124L94.474 97.736L97.6968 85.0653C99.0113 85.5424 100.064 86.222 100.374 87.165Z" fill="#F5AC83"/>
<path fill-rule="evenodd" clip-rule="evenodd" d="M127.405 107.165C127.987 106.335 128.243 105.321 128.125 104.315C127.846 103.201 127.771 102.046 127.903 100.906C128.161 99.325 128.721 99.7622 128.972 100.661C129.189 101.352 129.46 102.025 129.783 102.674C129.783 102.674 131.876 100.442 132.656 99.4485C133.436 98.4553 134.389 98.4192 134.421 99.1471C134.453 99.8749 134.177 99.9098 134.468 99.9879C134.551 99.9968 134.632 100.024 134.705 100.066C134.777 100.109 134.84 100.166 134.888 100.235C134.937 100.304 134.97 100.382 134.985 100.465C135.001 100.547 134.999 100.632 134.979 100.714L134.93 101.227C134.93 101.227 135.55 101.236 135.636 101.705C135.651 102.098 135.563 102.487 135.38 102.835C135.38 102.835 136.118 103.111 136.021 103.46C135.352 104.666 134.497 105.76 133.489 106.701C132.443 107.589 130.696 108.737 130.23 109.522C129.764 110.307 127.405 107.165 127.405 107.165Z" fill="#F5AC83"/>
<g filter="url(#filter0_d)">
<path fill-rule="evenodd" clip-rule="evenodd" d="M85.5642 125.288C95.1292 126.329 106.344 127.891 108.365 127.181C110.971 126.265 128.264 114.203 131.045 109.65C131.09 109.576 128.581 107.11 128.246 106.773C127.615 106.134 127.969 105.623 127.57 106.47C127.172 107.316 110.287 115.853 107.118 117.871C103.95 119.89 90.4626 113.411 87.9203 112.777C76.1468 109.851 71.4144 123.745 85.5642 125.288Z" fill="#FCBE1B"/>
</g>
<path fill-rule="evenodd" clip-rule="evenodd" d="M268.497 174.97C277.832 170.011 280.197 180.802 276.568 189.739C272.94 198.675 254.324 228.732 253.351 240.653C252.977 245.274 252.113 244.769 251.375 241.53C247.697 225.369 255.649 181.798 268.497 174.97Z" fill="#294D3C"/>
<path fill-rule="evenodd" clip-rule="evenodd" d="M248.735 134.025C238.035 124.391 231.343 137.877 233.194 150.886C235.044 163.896 249.741 209.77 247.095 225.848C246.068 232.082 247.375 231.699 249.418 227.66C259.61 207.508 263.467 147.287 248.735 134.025Z" fill="#4A9075"/>
<path fill-rule="evenodd" clip-rule="evenodd" d="M246.872 230.316C247.101 230.913 247.609 230.616 248.291 229.622C259.444 192.472 242.07 136.967 242.014 136.789C241.994 136.714 241.959 136.644 241.911 136.582C241.863 136.521 241.803 136.47 241.735 136.432C241.666 136.395 241.591 136.371 241.514 136.363C241.436 136.355 241.358 136.363 241.284 136.386C241.209 136.409 241.14 136.447 241.081 136.497C241.021 136.547 240.972 136.609 240.937 136.678C240.902 136.748 240.881 136.824 240.876 136.902C240.871 136.979 240.882 137.057 240.907 137.131C240.962 137.308 258.574 193.572 246.872 230.316Z" fill="#1B7154"/>
<path fill-rule="evenodd" clip-rule="evenodd" d="M225.365 164.891C214.995 160.377 213.369 172.088 217.985 181.322C222.6 190.557 244.965 221.065 246.996 233.697C247.784 238.595 248.661 237.984 249.177 234.467C251.754 216.922 239.637 171.104 225.365 164.891Z" fill="#A6C86B"/>
<path fill-rule="evenodd" clip-rule="evenodd" d="M247.941 237.084C248.26 237.472 248.565 237.124 248.825 236.214C247.886 205.766 221.131 168.744 221.045 168.622C220.972 168.531 220.867 168.471 220.751 168.455C220.636 168.439 220.519 168.468 220.424 168.536C220.329 168.604 220.264 168.706 220.242 168.821C220.22 168.935 220.243 169.054 220.306 169.152C220.391 169.274 247.512 206.8 247.941 237.084Z" fill="#5F9850"/>
<path fill-rule="evenodd" clip-rule="evenodd" d="M239.964 230.34H259.884L265.085 235.034L260.837 251.4H239.012L234.763 235.034L239.964 230.34Z" fill="#342F2E"/>
<path d="M264.081 224.249H235.768C234.302 224.249 233.115 225.437 233.115 226.902V232.38C233.115 233.845 234.302 235.033 235.768 235.033H264.081C265.546 235.033 266.734 233.845 266.734 232.38V226.902C266.734 225.437 265.546 224.249 264.081 224.249Z" fill="#342F2E"/>
<path fill-rule="evenodd" clip-rule="evenodd" d="M265.085 235.034L264.213 238.395H235.637L234.764 235.034H265.085Z" fill="#161414"/>
<defs>
<filter id="filter0_d" x="75.0306" y="103.685" width="62.8048" height="31.2345" filterUnits="userSpaceOnUse" color-interpolation-filters="sRGB">
<feFlood flood-opacity="0" result="BackgroundImageFix"/>
<feColorMatrix in="SourceAlpha" type="matrix" values="0 0 0 0 0 0 0 0 0 0 0 0 0 0 0 0 0 0 127 0"/>
<feOffset dx="2" dy="1"/>
<feGaussianBlur stdDeviation="1.5"/>
<feColorMatrix type="matrix" values="0 0 0 0 0 0 0 0 0 0 0 0 0 0 0 0 0 0 0.4 0"/>
<feBlend mode="normal" in2="BackgroundImageFix" result="effect1_dropShadow"/>
<feBlend mode="normal" in="SourceGraphic" in2="effect1_dropShadow" result="shape"/>
</filter>
</defs>
</svg>
